<?xml version="1.0" encoding="utf-8"?>
<!-- Generator: Adobe Illustrator 24.3.1, SVG Export Plug-In . SVG Version: 6.00 Build 0)  -->
<svg version="1.1" id="Layer_1" xmlns="http://www.w3.org/2000/svg" xmlns:xlink="http://www.w3.org/1999/xlink" x="0px" y="0px"
	 width="472.5px" height="108px" viewBox="0 0 472.5 108" style="enable-background:new 0 0 472.5 108;" xml:space="preserve">
<style type="text/css">
	.st0{fill:#004A98;}
	.st1{fill:#59595C;}
	.st2{fill:#221F1F;}
	.st3{fill:#FF5100;}
	.st4{fill:#FFFFFF;}
	.st5{fill:url(#SVGID_1_);}
	.st6{fill:url(#SVGID_2_);}
	.st7{fill:url(#SVGID_3_);}
	.st8{fill:url(#SVGID_4_);}
	.st9{fill:url(#SVGID_5_);}
	.st10{fill:url(#SVGID_6_);}
	.st11{fill:url(#SVGID_7_);}
	.st12{fill:url(#SVGID_8_);}
	.st13{fill:url(#SVGID_9_);}
	.st14{fill:url(#SVGID_10_);}
	.st15{fill:url(#SVGID_11_);}
	.st16{fill:url(#SVGID_12_);}
	.st17{fill:url(#SVGID_13_);}
	.st18{fill:url(#SVGID_14_);}
	.st19{fill:url(#SVGID_15_);}
	.st20{fill:url(#SVGID_16_);}
	.st21{fill:url(#SVGID_17_);}
	.st22{fill:url(#SVGID_18_);}
	.st23{fill:url(#SVGID_19_);}
	.st24{fill:url(#SVGID_20_);}
	.st25{fill:url(#SVGID_21_);}
	.st26{fill:url(#SVGID_22_);}
	.st27{fill:url(#SVGID_23_);}
	.st28{fill:url(#SVGID_24_);}
	.st29{fill:url(#SVGID_25_);}
	.st30{fill:url(#SVGID_26_);}
	.st31{fill:url(#SVGID_27_);}
	.st32{fill:url(#SVGID_28_);}
</style>
<g>
	<g>
		<polygon class="st0" points="145.5,35.3 132.4,7.3 122.2,7.3 109.2,35.3 97.2,7.3 83.8,7.3 106.1,58.8 111.6,58.8 127.3,25.6 
			143.1,58.8 148.6,58.8 170.8,7.3 157.4,7.3 		"/>
		<path class="st0" d="M213.4,35.6c0,4-1.2,7.1-3.5,9.3s-5.5,3.3-9.4,3.3c-3.8,0-6.8-1.1-9.1-3.2c-2.3-2.1-3.5-5-3.5-8.5V7.3h-12.7
			l-4,9.3h4v19.6c0,7.3,2.2,12.9,6.7,16.7c4.4,3.9,10.7,5.8,18.7,5.8c8.1,0,14.4-1.9,18.8-5.7c4.4-3.8,6.6-9.5,6.6-16.9V7.3h-12.7
			L213.4,35.6L213.4,35.6z"/>
		<polygon class="st0" points="248.9,7.3 236.3,7.3 232.3,16.6 236.3,16.6 236.3,58.1 271,58.1 275,48.8 248.9,48.8 		"/>
		<polygon class="st0" points="281.4,58.1 294,58.1 294,37.3 312.5,37.3 316.4,28 294,28 294,16.6 316.4,16.6 316.4,7.3 281.4,7.3 
					"/>
		<polygon class="st0" points="321.6,16.6 340.4,16.6 340.4,58.1 353.1,58.1 353.1,16.6 371.5,16.6 371.5,7.3 325.6,7.3 		"/>
		<polygon class="st0" points="391.3,36.6 414.4,36.6 414.4,27.3 391.3,27.3 391.3,16.6 415.6,16.6 415.6,7.3 378.6,7.3 378.6,58.1 
			412,58.1 416.1,48.8 391.3,48.8 		"/>
		<path class="st0" d="M453.9,48.2c-5.3,0-9.6-1.5-13-4.4s-5.1-6.7-5.1-11.2s1.7-8.2,5.1-11.1s7.9-4.3,13.3-4.3
			c5.5,0,11.3,1.7,17.5,5.2V11.1c-5-3-11.2-4.5-18.4-4.5c-9.1,0-16.5,2.5-22.1,7.6s-8.5,11.3-8.5,18.6s2.7,13.4,8,18.4
			s12.5,7.5,21.6,7.5c4.8,0,9.5-0.8,14.1-2.5l5.9-13.7c-4.8,2.4-8.4,3.9-10.8,4.6C459.1,47.9,456.6,48.2,453.9,48.2z"/>
	</g>
	<g>
		<g>
			<path class="st1" d="M200.5,92.2h1.7l6.6,15.4h-2.1l-1.6-3.8h-7.7l-1.6,3.8h-2.1L200.5,92.2z M201.3,94.5L201.3,94.5l-3.2,7.6
				h6.3L201.3,94.5z"/>
		</g>
		<g>
			<path class="st1" d="M217.8,92.2h5.1c5,0,9.1,2.1,9.1,7.8c0,5-4.1,7.7-8.7,7.7h-5.6L217.8,92.2L217.8,92.2z M221.2,104.5h1.8
				c3.2,0,5.5-1.2,5.5-4.7c0-3-2.4-4.4-5.3-4.4h-2V104.5z"/>
			<path class="st1" d="M248.6,101.7c0,3.6-2.2,6.3-6.5,6.3s-6.5-2.7-6.5-6.3v-9.5h3.4v9.3c0,1.9,1.3,3.3,3.1,3.3s3.1-1.4,3.1-3.3
				v-9.3h3.4V101.7z"/>
			<path class="st1" d="M253.1,92.2h6c3.2,0,5.8,1.1,5.8,4.7c0,2.2-1.2,3.8-3.3,4.2l3.9,6.5h-4.1l-3.2-6.2h-1.7v6.2h-3.4L253.1,92.2
				L253.1,92.2z M256.5,98.6h2c1.2,0,2.9,0,2.9-1.7c0-1.5-1.4-1.8-2.6-1.8h-2.2L256.5,98.6L256.5,98.6z"/>
			<path class="st1" d="M273.5,92.2h2.8l6.7,15.4h-3.8l-1.3-3.3h-6l-1.3,3.3h-3.7L273.5,92.2z M274.9,96.7l-1.9,4.8h3.8L274.9,96.7z
				"/>
			<path class="st1" d="M283.1,92.2h3.9l3.8,10.1l0,0l3.9-10.1h3.6l-6.4,15.4h-2.7L283.1,92.2z"/>
			<path class="st1" d="M305,92.2h2.8l6.7,15.4h-3.8l-1.3-3.3h-6l-1.3,3.3h-3.7L305,92.2z M306.3,96.7l-1.9,4.8h3.8L306.3,96.7z"/>
			<path class="st1" d="M317.3,92.2h4.6l6.6,10.7l0,0V92.2h3.4v15.4h-4.4l-6.7-11l0,0v11h-3.4V92.2H317.3z"/>
			<path class="st1" d="M339.3,95.2h-4.4v-3h12.2v3h-4.4v12.4h-3.4L339.3,95.2L339.3,95.2z"/>
		</g>
		<g>
			<path class="st1" d="M367.4,95.4c-0.9-1.2-2.4-1.9-3.9-1.9c-3.4,0-5.9,3-5.9,6.4c0,3.6,2.4,6.4,5.9,6.4c1.9,0,3.4-0.8,4.5-2.2
				l1.4,1.2c-1.4,1.9-3.4,2.7-5.8,2.7c-4.4,0-7.8-3.4-7.8-8.1c0-4.5,3.3-8.1,7.8-8.1c2.1,0,4.1,0.7,5.4,2.4L367.4,95.4z"/>
			<path class="st1" d="M372.3,99.9c0-4.7,3.4-8.1,8.1-8.1s8.1,3.4,8.1,8.1s-3.4,8.1-8.1,8.1C375.7,108,372.3,104.6,372.3,99.9z
				 M386.4,99.9c0-3.5-2.5-6.4-6.1-6.4s-6.1,2.9-6.1,6.4s2.5,6.4,6.1,6.4C384,106.3,386.4,103.5,386.4,99.9z"/>
			<path class="st1" d="M392.6,92.2h2.7l5.2,12.1l0,0l5.3-12.1h2.7v15.4h-1.8V94.7l0,0l-5.5,12.9H400l-5.5-12.9l0,0v12.9h-1.8V92.2
				H392.6z"/>
			<path class="st1" d="M413.7,92.2h4.6c2.8,0,5.4,1,5.4,4.2c0,3.4-2.9,4.3-5.1,4.3h-3.1v6.9h-1.8V92.2z M415.5,99h3.1
				c1.8,0,3.1-0.8,3.1-2.5s-1.3-2.5-3.1-2.5h-3.1V99z"/>
			<path class="st1" d="M431.3,92.2h1.7l6.6,15.4h-2.1l-1.6-3.8h-7.7l-1.6,3.8h-2.1L431.3,92.2z M432.1,94.5L432.1,94.5l-3.2,7.6
				h6.3L432.1,94.5z"/>
			<path class="st1" d="M442.9,92.2h2.3l8.9,12.8l0,0V92.2h1.8v15.4h-2.3l-8.9-12.8l0,0v12.8h-1.8V92.2z"/>
			<path class="st1" d="M464.8,101l-5.7-8.8h2.3l4.3,7l4.5-7h2.2l-5.7,8.8v6.6h-1.8L464.8,101L464.8,101z"/>
		</g>
		<g>
			<rect x="128.3" y="78.8" class="st2" width="344.2" height="0.8"/>
		</g>
	</g>
	<g>
		<ellipse class="st3" cx="39.2" cy="39.2" rx="39.2" ry="39.2"/>
		<ellipse class="st4" cx="39.2" cy="39.2" rx="33" ry="33"/>
		<g>
			<g>
				
					<linearGradient id="SVGID_1_" gradientUnits="userSpaceOnUse" x1="30.9602" y1="52.7285" x2="39.0387" y2="57.3927" gradientTransform="matrix(1 0 0 -1 0 107.8898)">
					<stop  offset="0" style="stop-color:#FFFFFF"/>
					<stop  offset="0.8405" style="stop-color:#004A98"/>
					<stop  offset="1" style="stop-color:#000000"/>
				</linearGradient>
				<polygon class="st5" points="33.6,59.5 28.5,50.9 36.5,46.1 				"/>
				
					<linearGradient id="SVGID_2_" gradientUnits="userSpaceOnUse" x1="191.1015" y1="57.0851" x2="170.9104" y2="49.7362" gradientTransform="matrix(0.9366 0.3505 0.3505 -0.9366 -164.6678 26.0545)">
					<stop  offset="0.1" style="stop-color:#FFFFFF"/>
					<stop  offset="0.5" style="stop-color:#808080"/>
					<stop  offset="0.9" style="stop-color:#004A98"/>
				</linearGradient>
				<path class="st6" d="M18.5,32.1c0,0-5.9,14.8-5.7,14.6s21.6-12.9,21.6-12.9L18.5,32.1z"/>
				
					<linearGradient id="SVGID_3_" gradientUnits="userSpaceOnUse" x1="12.1404" y1="75.0898" x2="28.6037" y2="75.0898" gradientTransform="matrix(1 0 0 -1 0 107.8898)">
					<stop  offset="0.1" style="stop-color:#004A98"/>
					<stop  offset="0.5" style="stop-color:#808080"/>
					<stop  offset="0.9" style="stop-color:#FFFFFF"/>
				</linearGradient>
				<polygon class="st7" points="28.6,34.3 12.1,38.4 23.9,27.2 				"/>
				
					<linearGradient id="SVGID_4_" gradientUnits="userSpaceOnUse" x1="18.8" y1="60.8898" x2="18.8" y2="60.8898" gradientTransform="matrix(1 0 0 -1 0 107.8898)">
					<stop  offset="0.5" style="stop-color:#FFFFFF"/>
					<stop  offset="0.9" style="stop-color:#000000"/>
				</linearGradient>
				<path class="st8" d="M18.8,47"/>
				
					<linearGradient id="SVGID_5_" gradientUnits="userSpaceOnUse" x1="32.2624" y1="50.7391" x2="28.0267" y2="48.194" gradientTransform="matrix(1 0 0 -1 0 107.8898)">
					<stop  offset="0" style="stop-color:#FFFFFF"/>
					<stop  offset="1" style="stop-color:#000000"/>
				</linearGradient>
				<polygon class="st9" points="28.5,50.9 24.3,53.3 31.7,65.8 35.9,63.6 				"/>
				<g>
					
						<linearGradient id="SVGID_6_" gradientUnits="userSpaceOnUse" x1="-128.858" y1="162.8981" x2="-148.0066" y2="159.5217" gradientTransform="matrix(0.8997 -0.4366 -0.4366 -0.8997 222.0494 133.4383)">
						<stop  offset="0.1" style="stop-color:#FFFFFF"/>
						<stop  offset="0.5" style="stop-color:#808080"/>
						<stop  offset="0.9" style="stop-color:#004A98"/>
					</linearGradient>
					<polygon class="st10" points="21.1,55.2 25.6,63.4 28.6,34.3 					"/>
					
						<linearGradient id="SVGID_7_" gradientUnits="userSpaceOnUse" x1="-128.8385" y1="162.9016" x2="-148.0122" y2="159.5207" gradientTransform="matrix(0.8997 -0.4366 -0.4366 -0.8997 222.0494 133.4383)">
						<stop  offset="0.1" style="stop-color:#FFFFFF"/>
						<stop  offset="0.5" style="stop-color:#808080"/>
						<stop  offset="0.9" style="stop-color:#004A98"/>
					</linearGradient>
					<polygon class="st11" points="36.8,45.6 25.6,63.4 28.6,34.3 					"/>
				</g>
				<g>
					
						<linearGradient id="SVGID_8_" gradientUnits="userSpaceOnUse" x1="87.2861" y1="50.8943" x2="73.823" y2="48.5204" gradientTransform="matrix(0.9905 0.1376 0.1376 -0.9905 -64.4911 82.8013)">
						<stop  offset="0.1" style="stop-color:#FFFFFF"/>
						<stop  offset="0.5" style="stop-color:#808080"/>
						<stop  offset="0.9" style="stop-color:#004A98"/>
					</linearGradient>
					<polygon class="st12" points="16.4,45.7 15.7,55 28.6,34.3 					"/>
					
						<linearGradient id="SVGID_9_" gradientUnits="userSpaceOnUse" x1="94.6368" y1="52.1905" x2="73.8081" y2="48.5178" gradientTransform="matrix(0.9905 0.1376 0.1376 -0.9905 -64.4911 82.8013)">
						<stop  offset="0.1" style="stop-color:#FFFFFF"/>
						<stop  offset="0.5" style="stop-color:#808080"/>
						<stop  offset="0.9" style="stop-color:#004A98"/>
					</linearGradient>
					<polygon class="st13" points="36.5,46.1 15.7,55 28.6,34.3 					"/>
				</g>
				
					<linearGradient id="SVGID_10_" gradientUnits="userSpaceOnUse" x1="30.3773" y1="68.2557" x2="44.3409" y2="79.9725" gradientTransform="matrix(1 0 0 -1 0 107.8898)">
					<stop  offset="0" style="stop-color:#FFFFFF"/>
					<stop  offset="1" style="stop-color:#000000"/>
				</linearGradient>
				<polygon class="st14" points="39.2,21.7 32,20.8 23.9,27.2 39.2,50.1 				"/>
				
					<linearGradient id="SVGID_11_" gradientUnits="userSpaceOnUse" x1="36.264" y1="61.0687" x2="41.1184" y2="60.0369" gradientTransform="matrix(1 0 0 -1 0 107.8898)">
					<stop  offset="0" style="stop-color:#FFFFFF"/>
					<stop  offset="3.127503e-02" style="stop-color:#ECECEC"/>
					<stop  offset="0.1095" style="stop-color:#C1C1C1"/>
					<stop  offset="0.1939" style="stop-color:#9A9A9A"/>
					<stop  offset="0.2836" style="stop-color:#7A7A7A"/>
					<stop  offset="0.38" style="stop-color:#606060"/>
					<stop  offset="0.4859" style="stop-color:#4C4C4C"/>
					<stop  offset="0.606" style="stop-color:#3E3E3E"/>
					<stop  offset="0.7524" style="stop-color:#353535"/>
					<stop  offset="1" style="stop-color:#333333"/>
				</linearGradient>
				<polygon class="st15" points="33.6,59.5 39.2,34.2 39.2,57.1 				"/>
				
					<linearGradient id="SVGID_12_" gradientUnits="userSpaceOnUse" x1="34.8491" y1="39.4887" x2="36.6908" y2="44.5489" gradientTransform="matrix(1 0 0 -1 0 107.8898)">
					<stop  offset="0.25" style="stop-color:#000000"/>
					<stop  offset="1" style="stop-color:#808080"/>
				</linearGradient>
				<polygon class="st16" points="39.2,67.7 39.2,64.2 35.3,63.6 31.7,65.8 34.2,68.2 				"/>
				<polygon id="eyeshadow_6_" points="31.5,38.2 32.9,39.5 33.9,44.1 31.6,47 32.9,44.4 31.5,42.7 30,42.8 28,41.4 27.6,39.5 
					24.9,39 				"/>
				<path id="eye_6_" class="st3" d="M32.4,40.4c-0.2,1.1-1.2,1.8-2.2,1.6c-1.1-0.2-1.8-1.2-1.6-2.2c0.1-0.5,0.4-1,0.8-1.3l2-0.2
					C32,38.6,32.5,39.5,32.4,40.4z"/>
				<circle class="st2" cx="30.7" cy="39.6" r="1.3"/>
				<g>
					
						<linearGradient id="SVGID_13_" gradientUnits="userSpaceOnUse" x1="22.6655" y1="81.8203" x2="27.524" y2="91.7818" gradientTransform="matrix(1 0 0 -1 0 107.8898)">
						<stop  offset="0.5" style="stop-color:#FFFFFF"/>
						<stop  offset="0.9" style="stop-color:#000000"/>
					</linearGradient>
					<polygon class="st17" points="23.1,13.9 21.3,15 24.3,26.8 32,20.8 					"/>
					
						<linearGradient id="SVGID_14_" gradientUnits="userSpaceOnUse" x1="24.3154" y1="81.1824" x2="16.8284" y2="83.9074" gradientTransform="matrix(1 0 0 -1 0 107.8898)">
						<stop  offset="0.5" style="stop-color:#FFFFFF"/>
						<stop  offset="0.9" style="stop-color:#000000"/>
					</linearGradient>
					<polygon class="st18" points="19.8,15.8 16.3,34.4 24.3,26.8 21.3,15 					"/>
				</g>
			</g>
			<g>
				
					<linearGradient id="SVGID_15_" gradientUnits="userSpaceOnUse" x1="239.8979" y1="52.7448" x2="247.9763" y2="57.4089" gradientTransform="matrix(-1 0 0 -1 287.2595 107.8898)">
					<stop  offset="0" style="stop-color:#FFFFFF"/>
					<stop  offset="0.8405" style="stop-color:#004A98"/>
					<stop  offset="1" style="stop-color:#000000"/>
				</linearGradient>
				<polygon class="st19" points="44.8,59.5 49.8,50.9 41.8,46.1 				"/>
				
					<linearGradient id="SVGID_16_" gradientUnits="userSpaceOnUse" x1="386.793" y1="130.318" x2="366.6019" y2="122.9691" gradientTransform="matrix(-0.9366 0.3505 -0.3505 -0.9366 451.9272 26.0545)">
					<stop  offset="0.1" style="stop-color:#FFFFFF"/>
					<stop  offset="0.5" style="stop-color:#808080"/>
					<stop  offset="0.9" style="stop-color:#004A98"/>
				</linearGradient>
				<path class="st20" d="M59.8,32.1c0,0,5.9,14.8,5.7,14.6S43.9,33.8,43.9,33.8L59.8,32.1z"/>
				
					<linearGradient id="SVGID_17_" gradientUnits="userSpaceOnUse" x1="221.0817" y1="75.0898" x2="237.545" y2="75.0898" gradientTransform="matrix(-1 0 0 -1 287.2595 107.8898)">
					<stop  offset="0.1" style="stop-color:#004A98"/>
					<stop  offset="0.5" style="stop-color:#808080"/>
					<stop  offset="0.9" style="stop-color:#FFFFFF"/>
				</linearGradient>
				<polygon class="st21" points="49.7,34.3 66.2,38.4 54.5,27.2 				"/>
				
					<linearGradient id="SVGID_18_" gradientUnits="userSpaceOnUse" x1="227.7595" y1="60.8898" x2="227.7595" y2="60.8898" gradientTransform="matrix(-1 0 0 -1 287.2595 107.8898)">
					<stop  offset="0.5" style="stop-color:#FFFFFF"/>
					<stop  offset="0.9" style="stop-color:#000000"/>
				</linearGradient>
				<path class="st22" d="M59.5,47"/>
				
					<linearGradient id="SVGID_19_" gradientUnits="userSpaceOnUse" x1="46.0642" y1="50.7531" x2="50.2999" y2="48.208" gradientTransform="matrix(1 0 0 -1 0 107.8898)">
					<stop  offset="0" style="stop-color:#FFFFFF"/>
					<stop  offset="1" style="stop-color:#000000"/>
				</linearGradient>
				<polygon class="st23" points="49.8,50.9 42.4,63.6 46.6,65.8 54.1,53.3 				"/>
				<g>
					
						<linearGradient id="SVGID_20_" gradientUnits="userSpaceOnUse" x1="59.1278" y1="71.6737" x2="39.9792" y2="68.2973" gradientTransform="matrix(-0.8997 -0.4366 0.4366 -0.8997 65.21 133.4383)">
						<stop  offset="0.1" style="stop-color:#FFFFFF"/>
						<stop  offset="0.5" style="stop-color:#808080"/>
						<stop  offset="0.9" style="stop-color:#004A98"/>
					</linearGradient>
					<polygon class="st24" points="57.2,55.2 52.7,63.4 49.7,34.3 					"/>
					
						<linearGradient id="SVGID_21_" gradientUnits="userSpaceOnUse" x1="59.1473" y1="71.6772" x2="39.9737" y2="68.2964" gradientTransform="matrix(-0.8997 -0.4366 0.4366 -0.8997 65.21 133.4383)">
						<stop  offset="0.1" style="stop-color:#FFFFFF"/>
						<stop  offset="0.5" style="stop-color:#808080"/>
						<stop  offset="0.9" style="stop-color:#004A98"/>
					</linearGradient>
					<polygon class="st25" points="41.5,45.6 52.7,63.4 49.7,34.3 					"/>
				</g>
				<g>
					
						<linearGradient id="SVGID_22_" gradientUnits="userSpaceOnUse" x1="294.2555" y1="79.6465" x2="280.7924" y2="77.2726" gradientTransform="matrix(-0.9905 0.1376 -0.1376 -0.9905 351.7506 82.8013)">
						<stop  offset="0.1" style="stop-color:#FFFFFF"/>
						<stop  offset="0.5" style="stop-color:#808080"/>
						<stop  offset="0.9" style="stop-color:#004A98"/>
					</linearGradient>
					<polygon class="st26" points="62,45.7 62.6,55 49.7,34.3 					"/>
					
						<linearGradient id="SVGID_23_" gradientUnits="userSpaceOnUse" x1="301.6062" y1="80.9426" x2="280.7775" y2="77.27" gradientTransform="matrix(-0.9905 0.1376 -0.1376 -0.9905 351.7506 82.8013)">
						<stop  offset="0.1" style="stop-color:#FFFFFF"/>
						<stop  offset="0.5" style="stop-color:#808080"/>
						<stop  offset="0.9" style="stop-color:#004A98"/>
					</linearGradient>
					<polygon class="st27" points="41.8,46.1 62.6,55 49.7,34.3 					"/>
				</g>
				
					<linearGradient id="SVGID_24_" gradientUnits="userSpaceOnUse" x1="239.2848" y1="68.296" x2="253.2484" y2="80.0128" gradientTransform="matrix(-1 0 0 -1 287.2595 107.8898)">
					<stop  offset="0" style="stop-color:#FFFFFF"/>
					<stop  offset="1" style="stop-color:#000000"/>
				</linearGradient>
				<polygon class="st28" points="39.2,21.7 46.3,20.8 54.5,27.2 39.2,50.1 				"/>
				
					<linearGradient id="SVGID_25_" gradientUnits="userSpaceOnUse" x1="245.2018" y1="61.052" x2="250.0563" y2="60.0202" gradientTransform="matrix(-1 0 0 -1 287.2595 107.8898)">
					<stop  offset="0" style="stop-color:#FFFFFF"/>
					<stop  offset="3.127503e-02" style="stop-color:#ECECEC"/>
					<stop  offset="0.1095" style="stop-color:#C1C1C1"/>
					<stop  offset="0.1939" style="stop-color:#9A9A9A"/>
					<stop  offset="0.2836" style="stop-color:#7A7A7A"/>
					<stop  offset="0.38" style="stop-color:#606060"/>
					<stop  offset="0.4859" style="stop-color:#4C4C4C"/>
					<stop  offset="0.606" style="stop-color:#3E3E3E"/>
					<stop  offset="0.7524" style="stop-color:#353535"/>
					<stop  offset="1" style="stop-color:#333333"/>
				</linearGradient>
				<polygon class="st29" points="44.8,59.5 39.2,34.2 39.2,57.1 				"/>
				
					<linearGradient id="SVGID_26_" gradientUnits="userSpaceOnUse" x1="243.7623" y1="39.499" x2="245.604" y2="44.5592" gradientTransform="matrix(-1 0 0 -1 287.2595 107.8898)">
					<stop  offset="0.25" style="stop-color:#000000"/>
					<stop  offset="1" style="stop-color:#808080"/>
				</linearGradient>
				<polygon class="st30" points="39.2,67.7 39.2,64.2 43.1,63.6 46.6,65.8 44.1,68.2 				"/>
				<polygon points="42.3,57.1 36,57.1 33.6,59.5 33.6,61.9 37.5,65.8 40.8,65.8 44.8,61.9 44.8,59.5 				"/>
				<polygon id="eyeshadow_5_" points="46.8,38.2 45.4,39.5 44.4,44.1 46.7,47 45.4,44.4 46.8,42.7 48.3,42.8 50.3,41.4 50.7,39.5 
					53.4,39 				"/>
				<path id="eye_5_" class="st3" d="M45.9,40.4c0.2,1.1,1.2,1.8,2.2,1.6c1.1-0.2,1.8-1.2,1.6-2.2c-0.1-0.5-0.4-1-0.8-1.3l-2-0.2
					C46.3,38.6,45.8,39.5,45.9,40.4z"/>
				<circle class="st2" cx="47.6" cy="39.6" r="1.3"/>
				<g>
					
						<linearGradient id="SVGID_27_" gradientUnits="userSpaceOnUse" x1="231.6215" y1="81.8132" x2="236.4801" y2="91.7747" gradientTransform="matrix(-1 0 0 -1 287.2595 107.8898)">
						<stop  offset="0.5" style="stop-color:#FFFFFF"/>
						<stop  offset="0.9" style="stop-color:#000000"/>
					</linearGradient>
					<polygon class="st31" points="55.2,13.9 57,15 54.1,26.8 46.3,20.8 					"/>
					
						<linearGradient id="SVGID_28_" gradientUnits="userSpaceOnUse" x1="233.2588" y1="81.1882" x2="225.7719" y2="83.9132" gradientTransform="matrix(-1 0 0 -1 287.2595 107.8898)">
						<stop  offset="0.5" style="stop-color:#FFFFFF"/>
						<stop  offset="0.9" style="stop-color:#000000"/>
					</linearGradient>
					<polygon class="st32" points="58.5,15.8 62,34.4 54.1,26.8 57,15 					"/>
				</g>
			</g>
		</g>
	</g>
</g>
</svg>
