<?xml version="1.0" encoding="UTF-8" standalone="no" ?>
<!DOCTYPE svg PUBLIC "-//W3C//DTD SVG 1.1//EN" "http://www.w3.org/Graphics/SVG/1.1/DTD/svg11.dtd">
<svg xmlns="http://www.w3.org/2000/svg" xmlns:xlink="http://www.w3.org/1999/xlink" version="1.1" width="1988.097104548561" height="2000" viewBox="0 0 1988.097104548561 2000" xml:space="preserve">
<desc>Created with Fabric.js 5.3.0</desc>
<defs>
</defs>
<g transform="matrix(1 0 0 1 994.0485522742805 1000)" id="background-logo"  >
<rect style="stroke: none; stroke-width: 0; stroke-dasharray: none; stroke-linecap: butt; stroke-dashoffset: 0; stroke-linejoin: miter; stroke-miterlimit: 4; fill: rgb(255,255,255); fill-opacity: 0; fill-rule: nonzero; opacity: 1;"  paint-order="stroke"  x="-1812.5540126145654" y="-1450.0432100916523" rx="0" ry="0" width="3625.108025229131" height="2900.0864201833047" />
</g>
<g transform="matrix(5.577089269583278 0 0 5.577089269583278 994.0485522742805 1000)" id="logo-logo"  >
<g style=""  paint-order="stroke"   >
		<g transform="matrix(0.07496482919207353 0 0 0.07496482919207353 0 0)"  >
<path style="stroke: none; stroke-width: 1; stroke-dasharray: none; stroke-linecap: butt; stroke-dashoffset: 0; stroke-linejoin: miter; stroke-miterlimit: 4; fill: rgb(220,105,37); fill-rule: nonzero; opacity: 1;"  paint-order="stroke"  transform=" translate(-2377.12, -2391.355000000001)" d="M 3324.59 1925.07 C 3302.3 1957.1899999999998 3279.82 1988.31 3254.1800000000003 2017.8999999999999 C 3215.9700000000003 2061.42 3240.5600000000004 2070.0499999999997 3251.1000000000004 2118.97 C 3252.4300000000003 2125.12 3253.5400000000004 2131.31 3254.6800000000003 2137.5 C 3266.51 2203.65 3233.0600000000004 2249.14 3179.55 2278.05 C 3142.1000000000004 2297.13 3100.9500000000003 2301.0600000000004 3066.6600000000003 2273.02 C 3013.2000000000003 2229.3 2959.1900000000005 2183.53 2905.2900000000004 2140.75 C 2879.4100000000003 2120.22 2853.6400000000003 2105.48 2828.5900000000006 2132.7 C 2810.0400000000004 2152.85 2759.6800000000007 2219.1699999999996 2753.3400000000006 2243.8399999999997 L 2752.7300000000005 2246.8099999999995 C 2750.4100000000003 2269.0299999999993 2777.0000000000005 2292.9399999999996 2772.3700000000003 2257.6799999999994 C 2768.07 2225.0099999999993 2779.4500000000003 2209.5199999999995 2801.61 2186.1199999999994 C 2878.06 2117.1499999999996 2915.08 2174.6899999999996 2975.3 2228.7099999999996 C 3007.4 2257.0499999999997 3039.86 2284.1999999999994 3071.38 2313.3499999999995 C 3073.6600000000003 2315.4899999999993 3075.4 2317.1699999999996 3077.4300000000003 2319.4899999999993 C 3093.4500000000003 2342.109999999999 3065.3900000000003 2385.0199999999995 3044.8100000000004 2397.8199999999993 C 3011.4500000000003 2418.5699999999993 2976.0400000000004 2404.1199999999994 2965.4000000000005 2438.2199999999993 C 2953.4200000000005 2476.609999999999 2928.3500000000004 2447.0099999999993 2923.9600000000005 2479.2999999999993 C 2915.8700000000003 2531.4899999999993 2867.2300000000005 2521.959999999999 2855.7400000000007 2546.8499999999995 L 2854.4300000000007 2550.0499999999993 C 2850.080000000001 2562.859999999999 2843.4300000000007 2574.689999999999 2825.7600000000007 2575.3899999999994 C 2818.6300000000006 2575.6699999999996 2811.370000000001 2583.0299999999993 2804.9200000000005 2588.1199999999994 C 2794.3400000000006 2596.4799999999996 2784.3700000000003 2601.7799999999993 2770.2300000000005 2594.6699999999996 C 2765.6500000000005 2592.3599999999997 2756.4000000000005 2595.0699999999997 2751.4200000000005 2598.5399999999995 C 2726.3100000000004 2616.0799999999995 2721.2900000000004 2615.4399999999996 2704.5800000000004 2589.2499999999995 C 2702.8900000000003 2586.5899999999997 2702.1800000000003 2581.7499999999995 2700.0600000000004 2581.1299999999997 C 2670.9500000000003 2572.5799999999995 2665.4000000000005 2541.74 2645.76 2524.3999999999996 C 2633.38 2513.47 2626.34 2502.68 2640.69 2487.3199999999997 C 2651.64 2473.64 2647.08 2457.1 2633.23 2447.6299999999997 C 2628.68 2444.93 2618.86 2446.7499999999995 2613.86 2450.16 C 2605.27 2456.04 2598.4 2464.5499999999997 2591.15 2472.2799999999997 C 2579.29 2484.83 2511.83 2552.41 2511.2200000000003 2562.43 C 2510.3300000000004 2577.4199999999996 2565.53 2618.5499999999997 2579.4100000000003 2630.39 C 2699.59 2732.87 2819.6000000000004 2835.8599999999997 2938.9100000000003 2939.33 C 2946.5600000000004 2945.95 2954.2000000000003 2952.6 2961.8300000000004 2959.25 C 3064.8600000000006 3049.07 3152.2900000000004 3143.74 3196.0000000000005 3276.09 C 3211.3600000000006 3334.84 3188.0900000000006 3374.26 3136.8200000000006 3403.75 C 3084.0000000000005 3434.12 3003.1300000000006 3430.84 2947.620000000001 3409.5 C 2909.3000000000006 3394.77 2875.310000000001 3372.97 2841.890000000001 3349.48 C 2771.9700000000007 3298.25 2703.5700000000006 3245.02 2635.060000000001 3191.93 C 2571.810000000001 3142.54 2515.230000000001 3089 2450.480000000001 3039.6 C 2404.760000000001 3004.72 2361.020000000001 2970.8399999999997 2318.290000000001 2932.18 C 2298.7400000000007 2914.39 2260.9700000000007 2878.2599999999998 2232.770000000001 2882.45 C 2205.1800000000007 2897.21 2099.020000000001 3022.1699999999996 2069.6600000000008 3055.6099999999997 C 2035.1800000000007 3094.2699999999995 2002.3300000000008 3134.5899999999997 1965.6000000000008 3170.9999999999995 C 1914.3300000000008 3221.4999999999995 1859.7000000000007 3267.5099999999998 1808.6000000000008 3318.4699999999993 C 1753.8300000000008 3371.9099999999994 1662.4900000000007 3422.3899999999994 1585.960000000001 3386.4499999999994 C 1492.160000000001 3338.419999999999 1507.390000000001 3192.0899999999992 1565.5300000000009 3121.8899999999994 C 1598.750000000001 3081.7799999999993 1646.6600000000008 3051.9499999999994 1684.200000000001 3012.129999999999 C 1791.340000000001 2898.0499999999993 1895.490000000001 2781.499999999999 1999.070000000001 2664.189999999999 C 2012.360000000001 2649.129999999999 2025.360000000001 2633.8199999999993 2038.350000000001 2618.5099999999993 C 2045.160000000001 2610.4699999999993 2048.760000000001 2601.0199999999995 2039.060000000001 2593.439999999999 C 2005.300000000001 2564.209999999999 2011.4800000000012 2580.769999999999 1976.4700000000012 2597.309999999999 C 1945.840000000001 2611.769999999999 1925.570000000001 2584.779999999999 1904.0100000000011 2564.489999999999 C 1826.530000000001 2491.699999999999 1748.4800000000012 2421.009999999999 1675.2400000000011 2343.769999999999 C 1647.290000000001 2313.229999999999 1625.9800000000012 2281.899999999999 1584.5200000000011 2270.669999999999 C 1532.880000000001 2255.749999999999 1486.9700000000012 2222.499999999999 1458.030000000001 2177.079999999999 C 1425.620000000001 2131.309999999999 1379.400000000001 2110.869999999999 1342.1600000000012 2064.559999999999 C 1280.9900000000011 1988.4599999999991 1277.2600000000011 1909.479999999999 1280.6100000000013 1815.889999999999 C 1282.0800000000013 1774.789999999999 1289.7500000000014 1749.059999999999 1308.1200000000013 1712.219999999999 C 1338.3400000000013 1653.469999999999 1387.4800000000012 1611.849999999999 1440.4700000000012 1574.2899999999988 C 1526.7700000000011 1513.6599999999987 1657.9900000000011 1458.189999999999 1762.780000000001 1446.929999999999 C 1775.630000000001 1445.5399999999988 1793.310000000001 1443.5099999999989 1804.7300000000012 1450.809999999999 C 1814.6300000000012 1459.339999999999 1834.850000000001 1486.739999999999 1846.7700000000011 1499.419999999999 C 1900.2400000000011 1556.2299999999989 1886.370000000001 1555.199999999999 1829.610000000001 1603.659999999999 C 1797.470000000001 1631.789999999999 1769.800000000001 1662.079999999999 1740.7500000000011 1693.209999999999 C 1735.120000000001 1699.2299999999989 1729.4900000000011 1705.0099999999989 1723.6900000000012 1710.849999999999 C 1678.050000000001 1756.019999999999 1631.3600000000013 1799.209999999999 1585.6800000000012 1843.809999999999 C 1538.2300000000012 1890.149999999999 1566.3300000000013 1888.2099999999991 1608.9200000000012 1924.369999999999 C 1668.9200000000012 1975.309999999999 1658.5500000000013 1974.099999999999 1714.4500000000012 1914.219999999999 C 1791.6600000000012 1831.3299999999988 1867.1800000000012 1748.329999999999 1943.320000000001 1664.5199999999988 C 1986.160000000001 1617.3599999999988 1990.650000000001 1634.659999999999 2034.310000000001 1672.4799999999989 C 2049.300000000001 1685.219999999999 2087.020000000001 1709.469999999999 2083.860000000001 1729.909999999999 C 2079.740000000001 1756.5199999999988 2038.370000000001 1777.069999999999 2030.900000000001 1829.389999999999 C 2028.370000000001 1847.109999999999 2027.180000000001 1866.4999999999989 2025.410000000001 1884.449999999999 C 2020.920000000001 1928.399999999999 2023.570000000001 1939.0099999999989 2050.940000000001 1974.599999999999 C 2075.530000000001 2006.959999999999 2060.480000000001 2009.619999999999 2034.0400000000009 2034.369999999999 C 2028.490000000001 2039.559999999999 2009.3500000000008 2058.599999999999 2027.430000000001 2062.419999999999 C 2047.140000000001 2066.5899999999992 2057.100000000001 2037.6099999999992 2079.560000000001 2063.0099999999993 C 2081.6600000000008 2065.3899999999994 2084.3000000000006 2067.9499999999994 2087.620000000001 2068.129999999999 C 2110.4500000000007 2065.4499999999994 2119.290000000001 2077.959999999999 2124.960000000001 2097.6599999999994 C 2126.800000000001 2104.0699999999993 2135.790000000001 2111.2099999999996 2142.710000000001 2112.8099999999995 C 2191.110000000001 2126.7599999999993 2130.400000000001 2165.3499999999995 2212.070000000001 2189.9599999999996 C 2245.430000000001 2200.0199999999995 2270.220000000001 2224.5599999999995 2294.050000000001 2249.5499999999997 C 2327.660000000001 2284.7999999999997 2270.000000000001 2282.31 2292.820000000001 2306.0899999999997 C 2314.250000000001 2328.43 2328.340000000001 2306.7999999999997 2345.200000000001 2290.2 C 2412.570000000001 2223.8599999999997 2475.510000000001 2153.48 2539.300000000001 2083.7599999999998 C 2662.450000000001 1951.5599999999997 2679.730000000001 1937.4699999999998 2729.920000000001 1760.6099999999997 C 2746.110000000001 1703.5599999999997 2757.760000000001 1718.0399999999997 2788.800000000001 1678.8099999999997 C 2842.3700000000013 1611.0899999999997 2834.550000000001 1671.6499999999996 2884.990000000001 1685.8599999999997 C 2925.340000000001 1697.2199999999996 2903.820000000001 1702.0899999999997 2909.300000000001 1718.8199999999997 C 2916.6400000000012 1741.1899999999996 2977.0800000000013 1725.4799999999998 2973.8500000000013 1756.7899999999997 C 2972.1700000000014 1773.0999999999997 2979.4000000000015 1775.9099999999996 2995.2700000000013 1778.7799999999997 C 3008.9200000000014 1781.2499999999998 3027.9000000000015 1780.7499999999998 3024.6100000000015 1799.2499999999998 C 3022.1500000000015 1813.0399999999997 3027.3100000000013 1814.6799999999998 3040.7200000000016 1815.1099999999997 C 3057.7100000000014 1815.6599999999996 3083.730000000002 1813.1399999999996 3075.9300000000017 1838.4799999999996 C 3067.9300000000017 1864.5099999999995 3088.1600000000017 1856.8799999999997 3110.4300000000017 1866.5799999999995 C 3139.8600000000015 1879.4099999999994 3156.8500000000017 1847.9299999999994 3173.8400000000015 1826.5299999999995 C 3204.4000000000015 1783.9799999999996 3165.6200000000017 1811.6099999999994 3147.8400000000015 1776.7799999999995 C 3134.8700000000017 1751.3699999999994 3138.5300000000016 1761.8099999999995 3115.9300000000017 1757.4599999999996 C 3077.0100000000016 1749.9799999999996 3122.3600000000015 1715.3499999999997 3078.460000000002 1706.0699999999995 C 3034.5600000000018 1696.7899999999995 3075.380000000002 1668.2099999999996 3033.8100000000018 1662.4899999999996 C 2981.9300000000017 1655.3599999999994 3016.6800000000017 1626.8099999999995 2980.8700000000017 1623.8499999999995 C 2922.6400000000017 1615.8399999999995 2956.3100000000018 1585.6599999999994 2925.5600000000018 1582.3399999999995 C 2908.730000000002 1580.5299999999995 2894.6000000000017 1582.9499999999994 2885.270000000002 1562.9999999999995 C 2874.3500000000017 1533.1999999999996 2893.9100000000017 1532.5299999999995 2913.800000000002 1514.5499999999995 C 2957.600000000002 1475.0199999999995 2960.720000000002 1475.9099999999994 3019.620000000002 1467.2099999999996 C 3143.4600000000023 1450.2999999999995 3192.560000000002 1497.4699999999996 3289.6900000000023 1561.4499999999996 C 3338.4400000000023 1593.5599999999995 3373.910000000002 1640.5299999999995 3402.9600000000023 1690.5899999999997 C 3434.8800000000024 1745.5899999999997 3409.930000000002 1795.8599999999997 3379.2300000000023 1845.4599999999996 C 3362.350000000002 1872.7399999999996 3343.0100000000025 1898.7799999999995 3324.580000000002 1925.0599999999995 z M 3385.59 2476.21 C 3352.38 2549.31 3319.1800000000003 2622.42 3306.04 2675.81 C 3265.18 2841.81 3459.16 2884.81 3448.1 2693.96 C 3443.8399999999997 2620.41 3412.35 2544 3385.6 2476.21 z M 2343.11 1284.6100000000001 C 2304.3700000000003 1393.8100000000002 2265.63 1503.0300000000002 2253.32 1581.42 C 2215.03 1825.16 2499.25 1863.0800000000002 2459.82 1590.01 C 2444.6400000000003 1484.78 2389.94 1378.78 2343.11 1284.6100000000001 z M 1368.64 2476.21 C 1401.8500000000001 2549.31 1435.0500000000002 2622.42 1448.19 2675.81 C 1489.05 2841.81 1295.0700000000002 2884.81 1306.13 2693.96 C 1310.39 2620.41 1341.88 2544 1368.63 2476.21 z M 4389.51 2047.38 L 4468.25 2240.07 L 4675.86 2255.4100000000003 C 4679.299999999999 2255.65 4681.889999999999 2258.6400000000003 4681.65 2262.0800000000004 C 4681.53 2263.8300000000004 4680.7 2265.3600000000006 4679.45 2266.4100000000003 L 4520.5 2400.8700000000003 L 4570.06 2603.0800000000004 C 4570.870000000001 2606.4300000000003 4568.81 2609.8 4565.46 2610.6000000000004 C 4563.71 2611.03 4561.95 2610.6600000000003 4560.56 2609.7400000000002 L 4383.7300000000005 2500.21 L 4206.7300000000005 2609.84 C 4203.8 2611.6400000000003 4199.96 2610.7400000000002 4198.150000000001 2607.81 C 4197.250000000001 2606.34 4197.02 2604.64 4197.400000000001 2603.08 L 4246.960000000001 2400.87 L 4088.000000000001 2266.41 C 4085.370000000001 2264.18 4085.040000000001 2260.24 4087.270000000001 2257.6099999999997 C 4088.400000000001 2256.2799999999997 4089.980000000001 2255.5299999999997 4091.600000000001 2255.4199999999996 L 4299.210000000001 2240.0699999999997 L 4377.950000000001 2047.3799999999997 C 4379.250000000001 2044.1999999999996 4382.880000000001 2042.6599999999996 4386.06 2043.9599999999996 C 4387.68 2044.6199999999997 4388.870000000001 2045.8799999999997 4389.4800000000005 2047.3799999999997 z M 376.25 2047.38 L 454.99 2240.07 L 662.6 2255.4100000000003 C 666.0400000000001 2255.65 668.63 2258.6400000000003 668.39 2262.0800000000004 C 668.27 2263.8300000000004 667.4399999999999 2265.3600000000006 666.1899999999999 2266.4100000000003 L 507.23999999999995 2400.8700000000003 L 556.8 2603.0800000000004 C 557.6099999999999 2606.4300000000003 555.55 2609.8 552.1999999999999 2610.6000000000004 C 550.4499999999999 2611.03 548.6899999999999 2610.6600000000003 547.3 2609.7400000000002 L 370.4699999999999 2500.21 L 193.4699999999999 2609.84 C 190.5399999999999 2611.6400000000003 186.6999999999999 2610.7400000000002 184.8899999999999 2607.81 C 183.9899999999999 2606.34 183.7599999999999 2604.64 184.1399999999999 2603.08 L 233.6999999999999 2400.87 L 74.7399999999999 2266.41 C 72.1099999999999 2264.18 71.7799999999999 2260.24 74.00999999999989 2257.6099999999997 C 75.13999999999989 2256.2799999999997 76.71999999999989 2255.5299999999997 78.33999999999989 2255.4199999999996 L 285.94999999999993 2240.0699999999997 L 364.68999999999994 2047.3799999999997 C 365.97999999999996 2044.1999999999996 369.61999999999995 2042.6599999999996 372.79999999999995 2043.9599999999996 C 374.41999999999996 2044.6199999999997 375.60999999999996 2045.8799999999997 376.21999999999997 2047.3799999999997 z M 796.69 2391.3500000000004 C 796.69 3264.1900000000005 1504.27 3971.7800000000007 2377.12 3971.7800000000007 C 3249.96 3971.7800000000007 3957.55 3264.2000000000007 3957.55 2391.3500000000004 C 3957.55 1518.5100000000002 3249.9700000000003 810.9200000000003 2377.12 810.9200000000003 C 1504.2799999999997 810.9200000000003 796.6899999999998 1518.5000000000005 796.6899999999998 2391.3500000000004 z M 2377.12 3814.6200000000003 C 1591.07 3814.6200000000003 953.8499999999999 3177.4000000000005 953.8499999999999 2391.3500000000004 C 953.8499999999999 1605.3000000000004 1591.07 968.0800000000004 2377.12 968.0800000000004 C 3163.17 968.0800000000004 3800.39 1605.3000000000004 3800.39 2391.3500000000004 C 3800.39 3177.4000000000005 3163.17 3814.6200000000003 2377.12 3814.6200000000003 z M 2377.12 4.547473508864641e-13 C 1196.2299999999998 4.547473508864641e-13 215.26999999999998 855.9500000000005 20.789999999999964 1981.2700000000004 C 162.19999999999996 1860.7600000000004 303.61999999999995 1740.2500000000005 445.03999999999996 1619.7400000000005 C 531.0699999999999 1721.0500000000004 617.0999999999999 1822.3600000000006 703.1299999999999 1923.6700000000005 C 907.3499999999999 1191.1500000000005 1579.46 653.7000000000005 2377.12 653.7000000000005 C 3174.77 653.7000000000005 3846.89 1191.1500000000005 4051.1099999999997 1923.6700000000005 C 4137.139999999999 1822.3600000000006 4223.17 1721.0500000000006 4309.2 1619.7400000000005 C 4450.62 1740.2500000000005 4592.04 1860.7600000000004 4733.45 1981.2700000000004 C 4538.98 855.9500000000005 3558.0099999999998 4.547473508864641e-13 2377.12 4.547473508864641e-13 z M 0 2653.8200000000006 C 130.7 3851.040000000001 1145.11 4782.710000000001 2377.12 4782.710000000001 C 3609.13 4782.710000000001 4623.53 3851.050000000001 4754.24 2653.820000000001 C 4623.82 2784.240000000001 4493.4 2914.660000000001 4362.99 3045.070000000001 C 4269.08 2940.970000000001 4175.16 2836.8700000000013 4081.24 2732.770000000001 C 3922.6099999999997 3528.970000000001 3219.9399999999996 4129.000000000001 2377.12 4129.000000000001 C 1534.2999999999997 4129.000000000001 831.6299999999999 3528.960000000001 673 2732.770000000001 C 579.08 2836.870000000001 485.15999999999997 2940.9700000000007 391.25 3045.070000000001 C 260.84000000000003 2914.650000000001 130.42000000000002 2784.240000000001 0 2653.820000000001 z M 2377.12 1035.2100000000007 C 2751.6099999999997 1035.2100000000007 3090.6499999999996 1187.0000000000007 3336.06 1432.4200000000008 C 3581.47 1677.8300000000008 3733.27 2016.8700000000008 3733.27 2391.3600000000006 C 3733.27 2765.8600000000006 3581.47 3104.9000000000005 3336.06 3350.3000000000006 C 3090.65 3595.7100000000005 2751.6099999999997 3747.5100000000007 2377.12 3747.5100000000007 C 2002.62 3747.5100000000007 1663.58 3595.7100000000005 1418.1799999999998 3350.3000000000006 C 1172.7699999999998 3104.890000000001 1020.9699999999998 2765.8500000000004 1020.9699999999998 2391.3600000000006 C 1020.9699999999998 2016.8600000000006 1172.7699999999998 1677.8200000000006 1418.1799999999998 1432.4200000000005 C 1663.59 1187.0100000000004 2002.6299999999999 1035.2100000000005 2377.12 1035.2100000000005 z M 3313.95 1454.5300000000007 C 3074.2 1214.7800000000007 2742.97 1066.4800000000007 2377.12 1066.4800000000007 C 2011.27 1066.4800000000007 1680.0499999999997 1214.7800000000007 1440.29 1454.5300000000007 C 1200.54 1694.2800000000007 1052.24 2025.5100000000007 1052.24 2391.3600000000006 C 1052.24 2757.2100000000005 1200.54 3088.4400000000005 1440.29 3328.1900000000005 C 1680.04 3567.9400000000005 2011.27 3716.2400000000007 2377.12 3716.2400000000007 C 2742.97 3716.2400000000007 3074.19 3567.9400000000005 3313.95 3328.1900000000005 C 3553.7 3088.4400000000005 3702 2757.2100000000005 3702 2391.3600000000006 C 3702 2025.5100000000007 3553.7 1694.2900000000004 3313.95 1454.5300000000007 z M 1959.2099999999998 2136.3100000000004 C 1974.6799999999998 2139.8400000000006 1983.09 2103.03 1972.5499999999997 2104.7900000000004 C 1959.6799999999998 2106.9700000000003 1945.4299999999998 2133.1700000000005 1959.2099999999998 2136.3100000000004 z M 1991.8099999999997 2174.2000000000003 C 2007.2699999999998 2177.7300000000005 2015.6899999999998 2140.9100000000003 2005.1399999999996 2142.6800000000003 C 1992.2799999999997 2144.86 1978.0299999999997 2171.0600000000004 1991.8099999999997 2174.2000000000003 z M 2024.4099999999996 2212.0800000000004 C 2039.8699999999997 2215.6100000000006 2048.2899999999995 2178.8 2037.7399999999996 2180.5600000000004 C 2024.8799999999997 2182.7300000000005 2010.6199999999997 2208.9300000000003 2024.4099999999996 2212.0800000000004 z M 2057.0099999999998 2249.9700000000003 C 2072.4799999999996 2253.5000000000005 2080.8799999999997 2216.6800000000003 2070.3399999999997 2218.44 C 2057.4799999999996 2220.62 2043.2299999999998 2246.82 2057.0099999999998 2249.9700000000003 z M 3004.5199999999995 3226.1800000000003 C 2999.8699999999994 3262.3500000000004 2971.6999999999994 3267.9300000000003 2942.4899999999993 3253.9100000000003 C 2917.439999999999 3239.5000000000005 2908.6799999999994 3218.0600000000004 2924.609999999999 3192.3900000000003 C 2947.5899999999992 3155.34 2997.169999999999 3158.9100000000003 3003.649999999999 3213.7300000000005 L 3004.519999999999 3226.1800000000003 z M 1699.2799999999995 3162.6900000000005 L 1707.1699999999996 3159.2600000000007 C 1771.2999999999997 3141.6600000000008 1743.7099999999996 3213.5000000000005 1700.4399999999996 3216.1700000000005 C 1675.3099999999995 3217.7200000000007 1661.5599999999995 3184.9600000000005 1699.2799999999995 3162.6900000000005 z M 2020.8599999999994 2487.1100000000006 C 2086.2699999999995 2420.4100000000008 2155.2999999999993 2357.620000000001 2220.4499999999994 2290.6500000000005 C 2221.9999999999995 2289.0400000000004 2246.5599999999995 2262.4300000000007 2233.669999999999 2261.1800000000007 C 2215.539999999999 2264.2600000000007 2156.079999999999 2326.7600000000007 2136.389999999999 2344.4000000000005 C 2086.179999999999 2389.0400000000004 2035.069999999999 2430.3400000000006 1988.119999999999 2478.7200000000007 C 1938.619999999999 2526.560000000001 1927.149999999999 2498.8600000000006 1886.929999999999 2455.7200000000007 C 1822.719999999999 2387.1900000000005 1752.949999999999 2328.0900000000006 1687.539999999999 2262.1100000000006 C 1632.9699999999991 2207.0600000000004 1658.139999999999 2201.7600000000007 1707.889999999999 2153.6100000000006 C 1755.319999999999 2107.3300000000004 1792.699999999999 2064.370000000001 1844.2399999999989 2020.7200000000007 C 1868.5399999999988 2000.1100000000008 1967.2399999999989 1918.8800000000008 1980.199999999999 1900.4400000000007 C 1985.589999999999 1892.7600000000007 1997.7299999999989 1866.6400000000008 1986.4899999999989 1858.6500000000008 C 1977.0999999999988 1851.9800000000007 1916.0499999999988 1923.9700000000007 1905.369999999999 1935.2400000000007 C 1852.279999999999 1991.2500000000007 1798.769999999999 2046.7000000000007 1743.9899999999989 2101.0700000000006 C 1727.119999999999 2117.580000000001 1625.0299999999988 2213.9500000000007 1623.919999999999 2226.7200000000007 C 1622.579999999999 2242.230000000001 1653.299999999999 2262.600000000001 1664.559999999999 2271.2200000000007 C 1751.239999999999 2345.0300000000007 1829.6899999999991 2428.3000000000006 1910.659999999999 2508.210000000001 C 1965.079999999999 2561.850000000001 1975.859999999999 2534.350000000001 2020.859999999999 2487.120000000001 z M 1645.9699999999993 3201.8500000000004 C 1633.6499999999994 3219.8100000000004 1606.2999999999993 3261.4400000000005 1632.5399999999993 3278.9600000000005 L 1638.2699999999993 3282.0100000000007 C 1676.0999999999992 3298.120000000001 1732.7099999999994 3239.6900000000005 1759.8699999999992 3215.9600000000005 C 1770.5699999999993 3206.6100000000006 1781.0999999999992 3197.1600000000003 1791.5999999999992 3187.5900000000006 C 1916.5099999999993 3070.0400000000004 2035.5199999999993 2933.7200000000007 2151.5099999999993 2806.5700000000006 C 2221.8399999999992 2729.4800000000005 2290.9099999999994 2651.4400000000005 2358.5899999999992 2572.0000000000005 C 2419.6999999999994 2500.0700000000006 2477.439999999999 2434.5900000000006 2543.359999999999 2366.8300000000004 C 2567.0099999999993 2342.5200000000004 2621.4499999999994 2279.0800000000004 2575.0699999999993 2250.3900000000003 C 2530.149999999999 2222.6000000000004 2447.499999999999 2339.7700000000004 2420.5099999999993 2370.4900000000002 C 2379.7599999999993 2416.86 2335.5099999999993 2456.78 2294.2999999999993 2503.63 C 2253.519999999999 2549.92 2219.2199999999993 2584.85 2174.6799999999994 2627.35 C 2103.9899999999993 2695.63 2039.7099999999994 2771.9 1969.9599999999994 2842.35 C 1922.2299999999993 2890.56 1876.4199999999994 2939.63 1828.1699999999994 2987.88 C 1759.4599999999994 3056.6 1705.4599999999994 3116.7400000000002 1649.5299999999993 3196.7400000000002 L 1645.9699999999993 3201.86 z M 2567.5899999999992 2999.28 C 2599.6999999999994 3026.7000000000003 2633.2199999999993 3052.44 2667.1799999999994 3077.52 L 2672.0499999999993 3081.11 L 2676.879999999999 3084.6800000000003 C 2690.869999999999 3094.9800000000005 2701.5099999999993 3104.17 2713.899999999999 3116.3700000000003 C 2752.1799999999994 3153.2300000000005 2804.109999999999 3187.3300000000004 2847.0099999999993 3220.76 C 2888.2999999999993 3252.5200000000004 3015.1999999999994 3348.01 3064.169999999999 3297.23 C 3095.289999999999 3254.06 3047.919999999999 3196.18 3020.109999999999 3163.67 C 2966.499999999999 3102.09 2944.649999999999 3089.9900000000002 2881.559999999999 3042.2200000000003 C 2782.009999999999 2966.2400000000002 2698.0499999999993 2874.3900000000003 2597.099999999999 2796.7900000000004 C 2569.549999999999 2775.6400000000003 2452.199999999999 2682.7400000000002 2433.279999999999 2679.8200000000006 C 2411.659999999999 2676.4700000000007 2378.219999999999 2716.5900000000006 2364.619999999999 2731.4200000000005 C 2323.1099999999988 2774.8600000000006 2330.919999999999 2778.9600000000005 2376.579999999999 2818.2100000000005 C 2405.559999999999 2843.1000000000004 2426.629999999999 2860.5500000000006 2453.969999999999 2887.9800000000005 C 2491.809999999999 2925.9700000000003 2527.019999999999 2963.8900000000003 2567.6099999999988 2999.2800000000007 z M 1455.8299999999992 1921.4700000000003 C 1554.4899999999993 1825.1700000000003 1654.7699999999993 1729.0800000000004 1754.3299999999992 1633.6300000000003 C 1773.5099999999993 1615.7900000000004 1834.0199999999993 1570.1100000000004 1830.4599999999991 1542.9300000000003 C 1826.9299999999992 1516.0500000000002 1799.019999999999 1491.2300000000002 1770.239999999999 1508.0900000000004 C 1733.839999999999 1531.2500000000005 1661.8899999999992 1611.0900000000004 1625.029999999999 1646.2500000000005 C 1559.549999999999 1708.7200000000005 1495.499999999999 1763.7000000000005 1434.3999999999992 1831.1900000000005 C 1405.8899999999992 1862.6300000000006 1373.9399999999991 1896.1900000000005 1346.989999999999 1928.3900000000006 C 1328.009999999999 1951.0800000000006 1327.019999999999 1974.6000000000006 1342.4099999999992 2000.4500000000005 C 1358.729999999999 2027.8400000000006 1374.6699999999992 2005.0500000000004 1391.279999999999 1988.1600000000005 C 1411.559999999999 1967.5500000000006 1431.239999999999 1946.2400000000005 1451.529999999999 1925.7200000000005 L 1455.819999999999 1921.4600000000005 z M 1708.3199999999993 2075.84 C 1813.7999999999993 1970.18 1908.9399999999991 1854.7500000000002 2014.5899999999992 1749.2800000000002 C 2037.2099999999991 1726.7100000000003 2048.1999999999994 1710.4200000000003 2014.0099999999993 1690.9800000000002 C 1981.7299999999993 1672.6400000000003 1966.8799999999992 1701.1400000000003 1946.3999999999994 1724.8200000000002 C 1897.6599999999994 1781.16 1849.1299999999994 1839.4700000000003 1797.7099999999994 1893.2300000000002 C 1734.6799999999994 1958.8000000000002 1668.3699999999994 2021.1200000000003 1605.0799999999995 2086.5000000000005 C 1577.4599999999996 2115.1000000000004 1554.9699999999996 2141.8100000000004 1532.9699999999996 2175.0500000000006 C 1517.2499999999995 2199.6600000000008 1549.2599999999995 2227.620000000001 1559.4199999999996 2220.5700000000006 C 1584.6099999999997 2203.0400000000004 1637.6499999999996 2147.2900000000004 1661.0899999999997 2123.6600000000008 C 1676.8599999999997 2107.7600000000007 1692.5099999999998 2091.7200000000007 1708.3199999999997 2075.850000000001 z M 3037.7399999999993 2119.1800000000003 C 3050.959999999999 2141.9800000000005 3051.109999999999 2173.28 3061.5799999999995 2200.9 C 3075.8299999999995 2235.42 3100.1799999999994 2204.57 3114.4199999999996 2186.92 C 3147.9099999999994 2145.41 3138.2099999999996 2138.1800000000003 3101.3199999999997 2105.59 C 3016.6099999999997 2032.0100000000002 2927.39 1970.69 2841.6899999999996 1900.5300000000002 C 2821.0299999999997 1883.6200000000001 2807.6799999999994 1866.4600000000003 2789.6499999999996 1850.7200000000003 C 2770.47 1833.9600000000003 2764.91 1859.2600000000002 2757.6299999999997 1876.6500000000003 C 2727.8599999999997 1947.9400000000003 2686.2999999999997 2009.9300000000003 2656.7299999999996 2078.4200000000005 C 2654.6999999999994 2083.1200000000003 2653.2099999999996 2086.6900000000005 2651.9999999999995 2091.6400000000003 C 2651.7099999999996 2110.84 2676.1799999999994 2100.1600000000003 2685.4199999999996 2091.4500000000003 C 2716.47 2061.38 2742.0099999999998 2026.3000000000002 2765.0199999999995 1989.8600000000004 C 2799.5899999999997 1938.0500000000004 2814.1599999999994 1956.3900000000003 2861.1299999999997 1984.0200000000004 C 2911.68 2013.2100000000005 3005.87 2071.8500000000004 3037.7299999999996 2119.1800000000003 z M 2827.5699999999993 1683.0900000000004 C 2818.0899999999992 1683.6800000000003 2793.8199999999993 1710.1000000000004 2800.2199999999993 1723.5500000000004 C 2811.0799999999995 1746.3500000000004 2842.0899999999992 1753.8200000000004 2861.7699999999995 1769.6900000000005 C 2879.9099999999994 1784.3100000000004 2902.3799999999997 1807.1400000000006 2920.6899999999996 1823.6300000000006 C 2938.3099999999995 1839.4900000000005 3030.3599999999997 1925.1500000000005 3045.9999999999995 1927.5800000000006 C 3058.0199999999995 1929.4500000000005 3082.5699999999997 1898.4100000000005 3059.1199999999994 1882.2100000000007 C 3042.9599999999996 1871.0500000000006 3041.8099999999995 1874.7300000000007 3039.8399999999992 1854.4300000000007 C 3037.0099999999993 1825.3100000000009 2998.3899999999994 1852.0000000000007 2988.379999999999 1824.4300000000007 C 2980.399999999999 1802.4400000000007 2987.849999999999 1804.5100000000007 2965.519999999999 1801.6900000000007 C 2925.399999999999 1796.6100000000008 2957.7799999999993 1759.0700000000008 2914.419999999999 1751.9300000000007 C 2874.9499999999994 1745.4300000000007 2890.229999999999 1727.5000000000007 2865.5299999999993 1709.6500000000008 C 2862.959999999999 1707.7900000000009 2828.899999999999 1683.0500000000009 2827.5699999999993 1683.1000000000008 z M 1462.7899999999993 1623.1600000000003 C 1515.8399999999992 1585.2200000000003 1555.3999999999992 1570.0600000000004 1619.2699999999993 1560.3800000000003 C 1649.1999999999994 1555.8500000000004 1675.1699999999994 1546.0100000000004 1689.4599999999994 1517.0200000000004 C 1715.0199999999993 1465.1500000000005 1513.4399999999994 1563.9900000000005 1497.8799999999994 1572.9300000000005 C 1413.8999999999994 1622.8000000000004 1335.4599999999994 1694.9500000000005 1315.3699999999994 1794.3600000000006 C 1313.9899999999993 1801.2000000000005 1299.7499999999995 1876.8900000000006 1315.2599999999995 1873.2000000000005 C 1325.4599999999996 1870.7700000000004 1329.6899999999996 1808.2200000000005 1332.4399999999996 1794.8800000000006 C 1343.1199999999997 1743.0500000000006 1365.9199999999996 1716.8000000000006 1400.9199999999996 1679.2500000000005 C 1419.9699999999996 1658.9400000000005 1440.3299999999997 1639.6700000000005 1462.7899999999995 1623.1600000000005 z M 1917.8399999999992 2301.4300000000003 C 1928.7099999999991 2311.09 1939.1399999999992 2320.32 1949.5699999999993 2330.5200000000004 C 1960.6199999999992 2341.8800000000006 2016.6499999999992 2401.5300000000007 2029.0399999999993 2366.1200000000003 C 2033.0699999999993 2338.6600000000003 1980.9999999999993 2303.3 1962.6899999999994 2285.4300000000003 C 1934.9799999999993 2258.38 1892.5399999999993 2216.2400000000002 1906.2199999999993 2173.2100000000005 C 1913.7399999999993 2138.8300000000004 1878.3299999999992 2144.4900000000007 1864.8799999999994 2164.2300000000005 C 1854.5499999999995 2179.4300000000003 1850.9399999999994 2198.7600000000007 1852.8699999999994 2216.7900000000004 C 1858.9499999999994 2251.2400000000002 1892.9099999999994 2279.3500000000004 1917.8299999999995 2301.4300000000003 z M 3183.8499999999995 1755.2900000000004 C 3186.5299999999993 1768.5300000000004 3190.8399999999992 1774.2300000000005 3205.0599999999995 1765.3400000000004 C 3226.3799999999997 1752.0100000000004 3213.6899999999996 1728.1700000000003 3198.5899999999997 1715.1100000000004 C 3150.49 1673.4800000000002 3111.2 1639.7000000000003 3055.9799999999996 1607.1200000000003 C 3029.99 1589.6300000000003 2968.1599999999994 1532.9400000000003 2945.8399999999997 1526.3600000000004 C 2932.95 1522.5600000000004 2929.3399999999997 1532.8200000000004 2925.1499999999996 1542.7600000000004 C 2961.0899999999997 1545.1200000000003 2960.8899999999994 1553.7700000000004 2975.6199999999994 1584.5500000000004 C 2980.7799999999993 1594.7800000000004 2995.4899999999993 1595.3300000000004 3005.359999999999 1597.2100000000005 C 3032.149999999999 1601.9100000000005 3018.6599999999994 1615.2500000000005 3051.689999999999 1633.3600000000006 C 3062.2999999999993 1639.1800000000005 3080.109999999999 1644.3400000000006 3084.059999999999 1656.1100000000006 C 3095.239999999999 1689.3700000000006 3137.799999999999 1662.9500000000005 3134.639999999999 1705.4200000000005 C 3132.019999999999 1740.6500000000005 3159.849999999999 1722.1100000000006 3177.409999999999 1740.9000000000005 C 3181.559999999999 1745.3500000000006 3182.419999999999 1749.6400000000006 3183.849999999999 1755.2700000000004 z M 2090.8399999999992 2537.7400000000007 C 2097.649999999999 2545.140000000001 2105.5499999999993 2548.0300000000007 2112.609999999999 2540.4100000000008 C 2128.939999999999 2523.190000000001 2233.9499999999994 2417.7800000000007 2227.669999999999 2401.8200000000006 C 2223.9499999999994 2392.370000000001 2206.639999999999 2382.9900000000007 2194.0299999999993 2389.4200000000005 C 2172.919999999999 2400.1700000000005 2140.9699999999993 2440.6800000000007 2124.0599999999995 2459.7400000000007 C 2114.7799999999993 2469.770000000001 2082.9199999999996 2497.540000000001 2079.5699999999997 2506.6600000000008 C 2075.18 2518.690000000001 2083.83 2528.980000000001 2090.83 2537.730000000001 z M 3076.6399999999994 1538.0800000000008 C 3044.3699999999994 1541.7900000000009 3148.8899999999994 1579.6000000000008 3154.5599999999995 1582.260000000001 C 3249.2199999999993 1628.900000000001 3253.9599999999996 1690.210000000001 3281.4499999999994 1706.0800000000008 C 3298.7899999999995 1716.0900000000008 3298.2499999999995 1690.740000000001 3295.4799999999996 1679.770000000001 C 3284.3499999999995 1635.6300000000008 3245.0699999999997 1594.3600000000008 3206.1099999999997 1572.8400000000008 C 3172.0899999999997 1554.0400000000009 3121.0699999999997 1534.4100000000008 3081.89 1537.6400000000008 L 3076.64 1538.0700000000008 z M 2729.419999999999 2481.6800000000007 C 2744.629999999999 2534.000000000001 2799.3199999999993 2472.1500000000005 2819.289999999999 2452.890000000001 C 2828.469999999999 2444.040000000001 2847.489999999999 2429.6800000000007 2848.0499999999993 2417.750000000001 C 2848.3899999999994 2410.400000000001 2848.959999999999 2409.440000000001 2839.6799999999994 2408.350000000001 C 2827.3499999999995 2406.890000000001 2765.6899999999996 2422.9500000000007 2754.379999999999 2429.110000000001 C 2732.939999999999 2440.800000000001 2726.3899999999994 2459.040000000001 2729.419999999999 2481.680000000001 z M 2850.7799999999993 2059.5300000000007 C 2868.1599999999994 2074.4000000000005 2896.169999999999 2089.0300000000007 2916.629999999999 2103.5300000000007 C 2944.9499999999994 2123.6300000000006 2960.1599999999994 2137.6800000000007 2985.499999999999 2160.640000000001 C 3006.109999999999 2179.3200000000006 3002.609999999999 2152.4500000000007 2984.199999999999 2131.960000000001 C 2962.039999999999 2107.300000000001 2892.229999999999 2052.730000000001 2862.6499999999987 2034.920000000001 C 2839.6099999999988 2024.490000000001 2834.5999999999985 2039.990000000001 2850.7899999999986 2059.530000000001 z M 3157.209999999999 1999.9300000000007 C 3174.179999999999 1990.5300000000007 3203.229999999999 1956.1000000000008 3209.439999999999 1937.7400000000007 C 3212.609999999999 1928.3900000000008 3189.919999999999 1923.2700000000007 3173.389999999999 1938.5800000000006 C 3165.279999999999 1946.0900000000006 3118.319999999999 2002.5400000000006 3153.369999999999 2000.8000000000006 L 3157.199999999999 1999.9200000000005 z M 1539.9699999999991 2045.8700000000008 C 1531.759999999999 2053.2200000000007 1503.1799999999992 2077.420000000001 1514.2199999999991 2090.2000000000007 C 1536.8599999999992 2096.7800000000007 1571.3799999999992 2057.000000000001 1584.1799999999992 2040.9000000000008 C 1604.1799999999992 2015.7800000000009 1573.9399999999991 2021.6100000000008 1558.8499999999992 2030.3700000000008 C 1552.3499999999992 2034.8100000000009 1545.8999999999992 2040.6700000000008 1539.9699999999991 2045.8600000000008 z M 2876.989999999999 2212.880000000001 C 2840.589999999999 2230.560000000001 2824.299999999999 2311.180000000001 2880.309999999999 2239.460000000001 C 2887.609999999999 2230.110000000001 2901.079999999999 2208.300000000001 2876.989999999999 2212.880000000001 z M 2896.809999999999 2293.660000000001 C 2904.899999999999 2287.760000000001 2931.929999999999 2259.780000000001 2928.5699999999993 2249.1900000000014 C 2925.439999999999 2243.9900000000016 2924.399999999999 2243.4700000000016 2917.3199999999993 2247.1900000000014 C 2904.379999999999 2253.9900000000016 2869.4499999999994 2311.2400000000016 2896.7999999999993 2293.660000000001 z M 2938.989999999999 2318.1700000000014 C 2926.599999999999 2350.3600000000015 2967.529999999999 2320.8400000000015 2972.079999999999 2292.1200000000013 C 2971.989999999999 2292.2500000000014 2971.929999999999 2290.7900000000013 2969.899999999999 2289.8900000000012 C 2954.579999999999 2283.110000000001 2944.609999999999 2308.1700000000014 2938.9899999999993 2318.1700000000014 z" stroke-linecap="round" />
</g>
</g>
</g>
<g transform="matrix(2.5930822586079283 -4.937595479683785 4.937595479683785 2.593082258607928 247.56028917379865 566.2186535184604)" id="text-logo-0"  >
<g style=""  paint-order="stroke"   >
		<g transform="matrix(1 0 0 1 0 0)" id="4ab751ed-3d3e-432f-a0cf-d512f10fcbc5-path-0"  >
<path style="stroke: none; stroke-width: 0; stroke-dasharray: none; stroke-linecap: butt; stroke-dashoffset: 0; stroke-linejoin: miter; stroke-miterlimit: 4; fill: rgb(255,255,255); fill-rule: nonzero; opacity: 1;"  paint-order="stroke"  transform=" translate(-7.58, 7.35)" d="M 1.34 0 L 6.7 0 C 10.69 0 13.82 -3.09 13.82 -7.43 C 13.82 -11.53 10.88 -14.7 6.7 -14.7 L 1.34 -14.7 Z M 4.7 -3.15 L 4.7 -11.55 L 6.26 -11.55 C 8.55 -11.55 10.25 -9.87 10.25 -7.39 C 10.25 -4.96 8.61 -3.15 6.2 -3.15 Z" stroke-linecap="round" />
</g>
</g>
</g>
<g transform="matrix(3.1461103986544363 -4.604987956594386 4.604987956594388 3.146110398654437 298.09313517331725 482.61580543736784)" id="text-logo-1"  >
<g style=""  paint-order="stroke"   >
		<g transform="matrix(1 0 0 1 -1.421085e-14 0)" id="a2764e86-c307-4aa2-ab31-c3917827b8d9-path-0"  >
<path style="stroke: none; stroke-width: 0; stroke-dasharray: none; stroke-linecap: butt; stroke-dashoffset: 0; stroke-linejoin: miter; stroke-miterlimit: 4; fill: rgb(255,255,255); fill-rule: nonzero; opacity: 1;"  paint-order="stroke"  transform=" translate(-6.215, 7.35)" d="M 1.34 0 L 11.09 0 L 11.09 -3.15 L 4.7 -3.15 L 4.7 -5.78 L 10.23 -5.78 L 10.23 -8.93 L 4.7 -8.93 L 4.7 -11.55 L 10.88 -11.55 L 10.88 -14.7 L 1.34 -14.7 Z" stroke-linecap="round" />
</g>
</g>
</g>
<g transform="matrix(3.622639826016971 -4.24033081396448 4.240330813964479 3.6226398260169708 352.4144563970058 411.82141057490185)" id="text-logo-2"  >
<g style=""  paint-order="stroke"   >
		<g transform="matrix(1 0 0 1 0 0)" id="abd47ef6-3434-4f35-a863-7557362101f9-path-0"  >
<path style="stroke: none; stroke-width: 0; stroke-dasharray: none; stroke-linecap: butt; stroke-dashoffset: 0; stroke-linejoin: miter; stroke-miterlimit: 4; fill: rgb(255,255,255); fill-rule: nonzero; opacity: 1;"  paint-order="stroke"  transform=" translate(-6.165, 7.35)" d="M 6.3 0.21 C 9.66 0.21 11.74 -2.21 11.74 -4.26 C 11.74 -6.7 9.53 -8.15 6.91 -8.99 C 5.15 -9.58 4.64 -9.89 4.64 -10.58 C 4.64 -11.19 5.38 -11.55 6.17 -11.55 C 7.06 -11.55 7.73 -11.09 8.38 -9.87 L 11.34 -11.63 C 10.27 -13.42 8.32 -14.91 6.17 -14.91 C 3.65 -14.91 1.28 -12.96 1.28 -10.58 C 1.28 -7.85 3.47 -6.83 5.94 -6.01 C 7.6 -5.46 8.23 -5.04 8.23 -4.26 C 8.23 -3.63 7.6 -3.15 6.3 -3.15 C 5.17 -3.15 4.22 -3.51 3.44 -5 L 0.59 -3.3 C 1.7 -1.39 3.59 0.21 6.3 0.21 Z" stroke-linecap="round" />
</g>
</g>
</g>
<g transform="matrix(4.057234029652592 -3.826588134295346 3.826588134295347 4.057234029652593 416.2298968766121 344.9574659057329)" id="text-logo-3"  >
<g style=""  paint-order="stroke"   >
		<g transform="matrix(1 0 0 1 0 0)" id="9612ede5-9964-4b51-a4d8-b7c657d9523b-path-0"  >
<path style="stroke: none; stroke-width: 0; stroke-dasharray: none; stroke-linecap: butt; stroke-dashoffset: 0; stroke-linejoin: miter; stroke-miterlimit: 4; fill: rgb(255,255,255); fill-rule: nonzero; opacity: 1;"  paint-order="stroke"  transform=" translate(-6.215, 7.35)" d="M 1.34 0 L 11.09 0 L 11.09 -3.15 L 4.7 -3.15 L 4.7 -5.78 L 10.23 -5.78 L 10.23 -8.93 L 4.7 -8.93 L 4.7 -11.55 L 10.88 -11.55 L 10.88 -14.7 L 1.34 -14.7 Z" stroke-linecap="round" />
</g>
</g>
</g>
<g transform="matrix(4.4645407389048914 -3.3424243763411483 3.3424243763411488 4.464540738904892 490.4160723764789 282.9008989906391)" id="text-logo-4"  >
<g style=""  paint-order="stroke"   >
		<g transform="matrix(1 0 0 1 0 0)" id="67eeb0c9-d030-459a-99bd-129e17679988-path-0"  >
<path style="stroke: none; stroke-width: 0; stroke-dasharray: none; stroke-linecap: butt; stroke-dashoffset: 0; stroke-linejoin: miter; stroke-miterlimit: 4; fill: rgb(255,255,255); fill-rule: nonzero; opacity: 1;"  paint-order="stroke"  transform=" translate(-7.22, 7.35)" d="M 1.34 0 L 4.7 0 L 4.7 -4.73 L 6.64 -4.73 L 9.32 0 L 13.1 0 L 9.66 -5.73 C 11.21 -6.43 12.2 -7.69 12.2 -9.72 C 12.2 -12.58 10.21 -14.7 7.22 -14.7 L 1.34 -14.7 Z M 4.7 -7.88 L 4.7 -11.55 L 7.01 -11.55 C 8.27 -11.55 8.84 -11.03 8.84 -9.72 C 8.84 -8.44 8.32 -7.88 7.01 -7.88 Z" stroke-linecap="round" />
</g>
</g>
</g>
<g transform="matrix(4.80584455107881 -2.829802620637535 2.8298026206375355 4.805844551078811 567.373656348107 231.9683514978674)" id="text-logo-5"  >
<g style=""  paint-order="stroke"   >
		<g transform="matrix(1 0 0 1 0 0)" id="c0a63e76-9c90-4db0-bcbc-55d8829ec129-path-0"  >
<path style="stroke: none; stroke-width: 0; stroke-dasharray: none; stroke-linecap: butt; stroke-dashoffset: 0; stroke-linejoin: miter; stroke-miterlimit: 4; fill: rgb(255,255,255); fill-rule: nonzero; opacity: 1;"  paint-order="stroke"  transform=" translate(-6.215, 7.35)" d="M 1.34 0 L 11.09 0 L 11.09 -3.15 L 4.7 -3.15 L 4.7 -5.78 L 10.23 -5.78 L 10.23 -8.93 L 4.7 -8.93 L 4.7 -11.55 L 10.88 -11.55 L 10.88 -14.7 L 1.34 -14.7 Z" stroke-linecap="round" />
</g>
</g>
</g>
<g transform="matrix(5.088547733676773 -2.282675334556784 2.2826753345567843 5.088547733676774 648.6305330315147 190.1032288648181)" id="text-logo-6"  >
<g style=""  paint-order="stroke"   >
		<g transform="matrix(1 0 0 1 0 0)" id="2ad93264-302d-4bd5-b6a2-ffcacb7da9f9-path-0"  >
<path style="stroke: none; stroke-width: 0; stroke-dasharray: none; stroke-linecap: butt; stroke-dashoffset: 0; stroke-linejoin: miter; stroke-miterlimit: 4; fill: rgb(255,255,255); fill-rule: nonzero; opacity: 1;"  paint-order="stroke"  transform=" translate(-5.68, 7.35)" d="M 4.01 0 L 7.37 0 L 7.37 -11.55 L 11.11 -11.55 L 11.11 -14.7 L 0.25 -14.7 L 0.25 -11.55 L 4.01 -11.55 Z" stroke-linecap="round" />
</g>
</g>
</g>
<g transform="matrix(0.9422636886216988 -0.3348718278760251 0.3348718278760251 0.9422636886216988 278.762219190713 116.87186219435337)" id="text-logo-7"  >
<g style=""  paint-order="stroke"   >
		<g transform="matrix(1 0 0 1 0 0)" id="1d3151bc-35c2-4c5f-aaa3-3e16928a7200-path-0"  >
<path style="stroke: none; stroke-width: 0; stroke-dasharray: none; stroke-linecap: butt; stroke-dashoffset: 0; stroke-linejoin: miter; stroke-miterlimit: 4; fill: rgb(255,255,255); fill-rule: nonzero; opacity: 1;"  paint-order="stroke"  transform=" translate(0, 0)" d="" stroke-linecap="round" />
</g>
</g>
</g>
<g transform="matrix(5.393785373058676 -1.4180987519489696 1.4180987519489694 5.393785373058675 781.7234217944748 143.32624505694434)" id="text-logo-8"  >
<g style=""  paint-order="stroke"   >
		<g transform="matrix(1 0 0 1 0 0)" id="378aab0d-1d02-4403-99b6-1f22195501ac-path-0"  >
<path style="stroke: none; stroke-width: 0; stroke-dasharray: none; stroke-linecap: butt; stroke-dashoffset: 0; stroke-linejoin: miter; stroke-miterlimit: 4; fill: rgb(255,255,255); fill-rule: nonzero; opacity: 1;"  paint-order="stroke"  transform=" translate(-6.665, 7.35)" d="M 1.34 0 L 4.7 0 L 4.7 -4.73 L 7.01 -4.73 C 9.87 -4.73 11.99 -6.74 11.99 -9.72 C 11.99 -12.58 10 -14.7 7.01 -14.7 L 1.34 -14.7 Z M 4.7 -7.88 L 4.7 -11.55 L 6.8 -11.55 C 8.06 -11.55 8.63 -11.03 8.63 -9.72 C 8.63 -8.44 8.11 -7.88 6.8 -7.88 Z" stroke-linecap="round" />
</g>
</g>
</g>
<g transform="matrix(5.515703561531795 -0.8251902460684067 0.8251902460684069 5.515703561531795 871.0606714827496 125.18836419033607)" id="text-logo-9"  >
<g style=""  paint-order="stroke"   >
		<g transform="matrix(1 0 0 1 0 0)" id="fa1f4473-563b-4c74-a9dc-0553c2ed61c6-path-0"  >
<path style="stroke: none; stroke-width: 0; stroke-dasharray: none; stroke-linecap: butt; stroke-dashoffset: 0; stroke-linejoin: miter; stroke-miterlimit: 4; fill: rgb(255,255,255); fill-rule: nonzero; opacity: 1;"  paint-order="stroke"  transform=" translate(-6.215, 7.35)" d="M 1.34 0 L 11.09 0 L 11.09 -3.15 L 4.7 -3.15 L 4.7 -5.78 L 10.23 -5.78 L 10.23 -8.93 L 4.7 -8.93 L 4.7 -11.55 L 10.88 -11.55 L 10.88 -14.7 L 1.34 -14.7 Z" stroke-linecap="round" />
</g>
</g>
</g>
<g transform="matrix(5.574306206287283 -0.17616764586048192 0.17616764586048195 5.574306206287284 967.5077069931159 116.58888779432255)" id="text-logo-10"  >
<g style=""  paint-order="stroke"   >
		<g transform="matrix(1 0 0 1 0 0)" id="3a5e3088-e59f-44bc-834a-643522c29e98-path-0"  >
<path style="stroke: none; stroke-width: 0; stroke-dasharray: none; stroke-linecap: butt; stroke-dashoffset: 0; stroke-linejoin: miter; stroke-miterlimit: 4; fill: rgb(255,255,255); fill-rule: nonzero; opacity: 1;"  paint-order="stroke"  transform=" translate(-6.779999999999999, 7.35)" d="M 9.72 0 L 13.5 0 L 8.67 -14.7 L 4.89 -14.7 L 0.06 0 L 3.84 0 L 4.54 -2.42 L 9.03 -2.42 Z M 5.44 -5.57 L 6.78 -10.29 L 8.13 -5.57 Z" stroke-linecap="round" />
</g>
</g>
</g>
<g transform="matrix(5.554587264168015 0.5004848106021067 -0.5004848106021066 5.554587264168014 1073.4988354323712 119.89963751322227)" id="text-logo-11"  >
<g style=""  paint-order="stroke"   >
		<g transform="matrix(1 0 0 1 0 0)" id="aa7a42f8-9286-4529-83b6-87d300f3ee7a-path-0"  >
<path style="stroke: none; stroke-width: 0; stroke-dasharray: none; stroke-linecap: butt; stroke-dashoffset: 0; stroke-linejoin: miter; stroke-miterlimit: 4; fill: rgb(255,255,255); fill-rule: nonzero; opacity: 1;"  paint-order="stroke"  transform=" translate(-7.79, 7.35)" d="M 1.34 0 L 4.7 0 L 4.7 -3.95 L 6.11 -5.69 L 9.83 0 L 14.24 0 L 8.21 -8.29 L 13.4 -14.7 L 8.99 -14.7 L 4.7 -8.82 L 4.7 -14.7 L 1.34 -14.7 Z" stroke-linecap="round" />
</g>
</g>
</g>
<g transform="matrix(0.9837241456366069 0.1796852951455067 -0.17968529514550674 0.9837241456366072 352.9570635682524 111.98564457477549)" id="text-logo-12"  >
<g style=""  paint-order="stroke"   >
		<g transform="matrix(1 0 0 1 0 0)" id="63f88998-f40f-4618-925b-33698a3387b4-path-0"  >
<path style="stroke: none; stroke-width: 0; stroke-dasharray: none; stroke-linecap: butt; stroke-dashoffset: 0; stroke-linejoin: miter; stroke-miterlimit: 4; fill: rgb(255,255,255); fill-rule: nonzero; opacity: 1;"  paint-order="stroke"  transform=" translate(0, 0)" d="" stroke-linecap="round" />
</g>
</g>
</g>
<g transform="matrix(5.382347667527829 1.4609100953716105 -1.4609100953716108 5.38234766752783 1217.5274391459002 146.2653781761926)" id="text-logo-13"  >
<g style=""  paint-order="stroke"   >
		<g transform="matrix(1 0 0 1 0 0)" id="37f880c1-988f-4db9-9e90-3c774d37da69-path-0"  >
<path style="stroke: none; stroke-width: 0; stroke-dasharray: none; stroke-linecap: butt; stroke-dashoffset: 0; stroke-linejoin: miter; stroke-miterlimit: 4; fill: rgb(255,255,255); fill-rule: nonzero; opacity: 1;"  paint-order="stroke"  transform=" translate(-6.665, 7.35)" d="M 1.34 0 L 4.7 0 L 4.7 -4.73 L 7.01 -4.73 C 9.87 -4.73 11.99 -6.74 11.99 -9.72 C 11.99 -12.58 10 -14.7 7.01 -14.7 L 1.34 -14.7 Z M 4.7 -7.88 L 4.7 -11.55 L 6.8 -11.55 C 8.06 -11.55 8.63 -11.03 8.63 -9.72 C 8.63 -8.44 8.11 -7.88 6.8 -7.88 Z" stroke-linecap="round" />
</g>
</g>
</g>
<g transform="matrix(5.195393125073651 2.027761079821384 -2.027761079821384 5.195393125073651 1303.9143579129368 175.05657288916143)" id="text-logo-14"  >
<g style=""  paint-order="stroke"   >
		<g transform="matrix(1 0 0 1 0 0)" id="ad74f249-c1b7-40c1-b56c-92936bda2267-path-0"  >
<path style="stroke: none; stroke-width: 0; stroke-dasharray: none; stroke-linecap: butt; stroke-dashoffset: 0; stroke-linejoin: miter; stroke-miterlimit: 4; fill: rgb(255,255,255); fill-rule: nonzero; opacity: 1;"  paint-order="stroke"  transform=" translate(-6.215, 7.35)" d="M 1.34 0 L 11.09 0 L 11.09 -3.15 L 4.7 -3.15 L 4.7 -14.7 L 1.34 -14.7 Z" stroke-linecap="round" />
</g>
</g>
</g>
<g transform="matrix(4.927354100911366 2.612490437328508 -2.612490437328509 4.9273541009113675 1389.3597753110466 215.07040035859666)" id="text-logo-15"  >
<g style=""  paint-order="stroke"   >
		<g transform="matrix(1 0 0 1 0 0)" id="b3536d2d-cacc-4b2f-a146-f2127ceeba03-path-0"  >
<path style="stroke: none; stroke-width: 0; stroke-dasharray: none; stroke-linecap: butt; stroke-dashoffset: 0; stroke-linejoin: miter; stroke-miterlimit: 4; fill: rgb(255,255,255); fill-rule: nonzero; opacity: 1;"  paint-order="stroke"  transform=" translate(-6.994999999999999, 7.244999999999999)" d="M 7.01 0.21 C 10.75 0.21 12.77 -1.95 12.77 -5.59 L 12.77 -14.7 L 9.41 -14.7 L 9.41 -5.57 C 9.41 -3.91 8.59 -3.15 6.99 -3.15 C 5.33 -3.15 4.58 -3.97 4.58 -5.57 L 4.58 -14.7 L 1.22 -14.7 L 1.22 -5.59 C 1.22 -1.79 3.36 0.21 7.01 0.21 Z" stroke-linecap="round" />
</g>
</g>
</g>
<g transform="matrix(4.521417327331833 3.2650742829228867 -3.2650742829228863 4.521417327331832 1488.3894571568583 275.99139852805445)" id="text-logo-16"  >
<g style=""  paint-order="stroke"   >
		<g transform="matrix(1 0 0 1 0 0)" id="7d21abaf-7f0e-4893-85e3-32dfe9ae3138-path-0"  >
<path style="stroke: none; stroke-width: 0; stroke-dasharray: none; stroke-linecap: butt; stroke-dashoffset: 0; stroke-linejoin: miter; stroke-miterlimit: 4; fill: rgb(255,255,255); fill-rule: nonzero; opacity: 1;"  paint-order="stroke"  transform=" translate(-8.795, 7.35)" d="M 8.27 0 L 9.32 0 L 12.89 -8.06 L 12.89 0 L 16.25 0 L 16.25 -14.7 L 12.68 -14.7 L 8.8 -6.53 L 4.91 -14.7 L 1.34 -14.7 L 1.34 0 L 4.7 0 L 4.7 -8.06 Z" stroke-linecap="round" />
</g>
</g>
</g>
<g transform="matrix(4.041272862148653 3.84344095499876 -3.8434409549987603 4.041272862148654 1577.7054016311247 350.3484483063364)" id="text-logo-17"  >
<g style=""  paint-order="stroke"   >
		<g transform="matrix(1 0 0 1 0 0)" id="9ed4caa8-fc6f-4f6e-8ad4-3ba37347a866-path-0"  >
<path style="stroke: none; stroke-width: 0; stroke-dasharray: none; stroke-linecap: butt; stroke-dashoffset: 0; stroke-linejoin: miter; stroke-miterlimit: 4; fill: rgb(255,255,255); fill-rule: nonzero; opacity: 1;"  paint-order="stroke"  transform=" translate(-7, 7.35)" d="M 1.34 0 L 8.13 0 C 10.61 0 12.66 -2.06 12.66 -4.58 C 12.66 -6.03 11.91 -7.1 10.79 -7.73 C 11.72 -8.38 12.08 -9.37 12.08 -10.58 C 12.08 -12.94 10.1 -14.7 7.75 -14.7 L 1.34 -14.7 Z M 4.7 -3.15 L 4.7 -5.99 L 7.71 -5.99 C 8.59 -5.99 9.09 -5.46 9.09 -4.58 C 9.09 -3.65 8.57 -3.15 7.71 -3.15 Z M 4.7 -9.13 L 4.7 -11.55 L 7.33 -11.55 C 8.13 -11.55 8.51 -11.15 8.51 -10.37 C 8.51 -9.51 8.13 -9.13 7.33 -9.13 Z" stroke-linecap="round" />
</g>
</g>
</g>
<g transform="matrix(3.678473435907147 4.191987345189202 -4.191987345189203 3.6784734359071476 1628.699813156603 403.59297832850416)" id="text-logo-18"  >
<g style=""  paint-order="stroke"   >
		<g transform="matrix(1 0 0 1 0 0)" id="1d582b51-7cf7-4e89-b373-e241cce58e2e-path-0"  >
<path style="stroke: none; stroke-width: 0; stroke-dasharray: none; stroke-linecap: butt; stroke-dashoffset: 0; stroke-linejoin: miter; stroke-miterlimit: 4; fill: rgb(255,255,255); fill-rule: nonzero; opacity: 1;"  paint-order="stroke"  transform=" translate(-3.0200000000000005, 7.35)" d="M 1.34 0 L 4.7 0 L 4.7 -14.7 L 1.34 -14.7 Z" stroke-linecap="round" />
</g>
</g>
</g>
<g transform="matrix(3.246400474222012 4.534843843162854 -4.534843843162855 3.2464004742220123 1680.5818777580191 468.9758664271909)" id="text-logo-19"  >
<g style=""  paint-order="stroke"   >
		<g transform="matrix(1 0 0 1 0 0)" id="d158f607-dbb6-4a44-b090-273b05d180fc-path-0"  >
<path style="stroke: none; stroke-width: 0; stroke-dasharray: none; stroke-linecap: butt; stroke-dashoffset: 0; stroke-linejoin: miter; stroke-miterlimit: 4; fill: rgb(255,255,255); fill-rule: nonzero; opacity: 1;"  paint-order="stroke"  transform=" translate(-7.35, 7.35)" d="M 10.37 0 L 13.36 0 L 13.36 -14.7 L 10 -14.7 L 10 -6.43 L 4.91 -14.7 L 1.34 -14.7 L 1.34 0 L 4.7 0 L 4.7 -9.24 Z" stroke-linecap="round" />
</g>
</g>
</g>
<g transform="matrix(2.621063118678613 4.92279928991663 -4.922799289916631 2.6210631186786135 1739.3360512265137 563.6908023444981)" id="text-logo-20"  >
<g style=""  paint-order="stroke"   >
		<g transform="matrix(1 0 0 1 0 0)" id="0d696941-f733-4446-b5d6-7c3ced34ea0c-path-0"  >
<path style="stroke: none; stroke-width: 0; stroke-dasharray: none; stroke-linecap: butt; stroke-dashoffset: 0; stroke-linejoin: miter; stroke-miterlimit: 4; fill: rgb(255,255,255); fill-rule: nonzero; opacity: 1;"  paint-order="stroke"  transform=" translate(-8.040000000000001, 7.35)" d="M 8.25 0.21 C 9.85 0.21 11.3 -0.25 12.43 -1.05 L 12.66 0 L 15.39 0 L 15.39 -7.88 L 8.38 -7.88 L 8.38 -4.73 L 11.47 -4.73 C 10.75 -3.74 9.64 -3.15 8.25 -3.15 C 5.84 -3.15 4.05 -4.83 4.05 -7.35 C 4.05 -9.77 5.73 -11.55 8.25 -11.55 C 9.62 -11.55 10.75 -11.03 11.51 -10.06 L 14.07 -12.22 C 12.68 -13.9 10.65 -14.91 8.25 -14.91 C 3.86 -14.91 0.69 -11.93 0.69 -7.35 C 0.69 -2.96 3.68 0.21 8.25 0.21 Z" stroke-linecap="round" />
</g>
</g>
</g>
<g transform="matrix(3.024003841481329 4.686077836272792 -4.686077836272793 3.0240038414813295 259.13150970848665 1458.7796817782073)" id="tagline-41ee3246-8f90-48e1-9667-9e2c59dff361-logo-0"  >
<g style=""  paint-order="stroke"   >
		<g transform="matrix(1 0 0 1 0 0)" id="e9abb3c5-3e15-4b56-a2af-2722a1d1dba4-path-0"  >
<path style="stroke: none; stroke-width: 0; stroke-dasharray: none; stroke-linecap: butt; stroke-dashoffset: 0; stroke-linejoin: miter; stroke-miterlimit: 4; fill: rgb(255,255,255); fill-rule: nonzero; opacity: 1;"  paint-order="stroke"  transform=" translate(-6.215, 7.35)" d="M 1.34 0 L 11.09 0 L 11.09 -3.15 L 4.7 -3.15 L 4.7 -14.7 L 1.34 -14.7 Z" stroke-linecap="round" />
</g>
</g>
</g>
<g transform="matrix(3.4733030972327015 4.363495194870125 -4.363495194870126 3.473303097232702 308.2795495812197 1526.970898799962)" id="tagline-41ee3246-8f90-48e1-9667-9e2c59dff361-logo-1"  >
<g style=""  paint-order="stroke"   >
		<g transform="matrix(1 0 0 1 0 0)" id="432b4127-fb50-44fd-9b1b-3077ee91327d-path-0"  >
<path style="stroke: none; stroke-width: 0; stroke-dasharray: none; stroke-linecap: butt; stroke-dashoffset: 0; stroke-linejoin: miter; stroke-miterlimit: 4; fill: rgb(255,255,255); fill-rule: nonzero; opacity: 1;"  paint-order="stroke"  transform=" translate(-3.0200000000000005, 7.35)" d="M 1.34 0 L 4.7 0 L 4.7 -14.7 L 1.34 -14.7 Z" stroke-linecap="round" />
</g>
</g>
</g>
<g transform="matrix(3.9347986785786104 3.952377016424036 -3.952377016424036 3.9347986785786104 373.2558946213968 1599.8675888777188)" id="tagline-41ee3246-8f90-48e1-9667-9e2c59dff361-logo-2"  >
<g style=""  paint-order="stroke"   >
		<g transform="matrix(1 0 0 1 0 0)" id="99e535c7-0571-4338-97e3-65343d859593-path-0"  >
<path style="stroke: none; stroke-width: 0; stroke-dasharray: none; stroke-linecap: butt; stroke-dashoffset: 0; stroke-linejoin: miter; stroke-miterlimit: 4; fill: rgb(255,255,255); fill-rule: nonzero; opacity: 1;"  paint-order="stroke"  transform=" translate(-7.8100000000000005, 7.35)" d="M 8.25 0.21 C 11.26 0.21 13.48 -1.05 14.93 -3.78 L 11.97 -5.4 C 11.24 -3.99 9.89 -3.15 8.25 -3.15 C 5.84 -3.15 4.05 -4.83 4.05 -7.35 C 4.05 -9.77 5.73 -11.55 8.25 -11.55 C 9.87 -11.55 11.09 -10.86 11.91 -9.41 L 14.91 -10.96 C 13.59 -13.4 11.15 -14.91 8.25 -14.91 C 3.86 -14.91 0.69 -11.93 0.69 -7.35 C 0.69 -2.96 3.68 0.21 8.25 0.21 Z" stroke-linecap="round" />
</g>
</g>
</g>
<g transform="matrix(4.410543410768049 3.413360740184297 -3.4133607401842965 4.410543410768048 459.3222902184035 1675.63535624032)" id="tagline-41ee3246-8f90-48e1-9667-9e2c59dff361-logo-3"  >
<g style=""  paint-order="stroke"   >
		<g transform="matrix(1 0 0 1 0 0)" id="b1c1cb7e-1020-49e5-aba8-418deb49999e-path-0"  >
<path style="stroke: none; stroke-width: 0; stroke-dasharray: none; stroke-linecap: butt; stroke-dashoffset: 0; stroke-linejoin: miter; stroke-miterlimit: 4; fill: rgb(255,255,255); fill-rule: nonzero; opacity: 1;"  paint-order="stroke"  transform=" translate(-6.215, 7.35)" d="M 1.34 0 L 11.09 0 L 11.09 -3.15 L 4.7 -3.15 L 4.7 -5.78 L 10.23 -5.78 L 10.23 -8.93 L 4.7 -8.93 L 4.7 -11.55 L 10.88 -11.55 L 10.88 -14.7 L 1.34 -14.7 Z" stroke-linecap="round" />
</g>
</g>
</g>
<g transform="matrix(4.817539044982398 2.8098473750314317 -2.8098473750314312 4.817539044982397 552.8444123675129 1738.5615907483734)" id="tagline-41ee3246-8f90-48e1-9667-9e2c59dff361-logo-4"  >
<g style=""  paint-order="stroke"   >
		<g transform="matrix(1 0 0 1 0 0)" id="6ab2e826-e7b3-4e4b-bd2e-cd538558df5a-path-0"  >
<path style="stroke: none; stroke-width: 0; stroke-dasharray: none; stroke-linecap: butt; stroke-dashoffset: 0; stroke-linejoin: miter; stroke-miterlimit: 4; fill: rgb(255,255,255); fill-rule: nonzero; opacity: 1;"  paint-order="stroke"  transform=" translate(-7.35, 7.35)" d="M 10.37 0 L 13.36 0 L 13.36 -14.7 L 10 -14.7 L 10 -6.43 L 4.91 -14.7 L 1.34 -14.7 L 1.34 0 L 4.7 0 L 4.7 -9.24 Z" stroke-linecap="round" />
</g>
</g>
</g>
<g transform="matrix(5.139750174021522 2.1649232941484775 -2.1649232941484775 5.139750174021521 654.6125648622833 1789.3823224828748)" id="tagline-41ee3246-8f90-48e1-9667-9e2c59dff361-logo-5"  >
<g style=""  paint-order="stroke"   >
		<g transform="matrix(1 0 0 1 -7.10543e-15 0)" id="f3900473-2885-41bd-b2cf-00773949fe56-path-0"  >
<path style="stroke: none; stroke-width: 0; stroke-dasharray: none; stroke-linecap: butt; stroke-dashoffset: 0; stroke-linejoin: miter; stroke-miterlimit: 4; fill: rgb(255,255,255); fill-rule: nonzero; opacity: 1;"  paint-order="stroke"  transform=" translate(-6.165, 7.35)" d="M 6.3 0.21 C 9.66 0.21 11.74 -2.21 11.74 -4.26 C 11.74 -6.7 9.53 -8.15 6.91 -8.99 C 5.15 -9.58 4.64 -9.89 4.64 -10.58 C 4.64 -11.19 5.38 -11.55 6.17 -11.55 C 7.06 -11.55 7.73 -11.09 8.38 -9.87 L 11.34 -11.63 C 10.27 -13.42 8.32 -14.91 6.17 -14.91 C 3.65 -14.91 1.28 -12.96 1.28 -10.58 C 1.28 -7.85 3.47 -6.83 5.94 -6.01 C 7.6 -5.46 8.23 -5.04 8.23 -4.26 C 8.23 -3.63 7.6 -3.15 6.3 -3.15 C 5.17 -3.15 4.22 -3.51 3.44 -5 L 0.59 -3.3 C 1.7 -1.39 3.59 0.21 6.3 0.21 Z" stroke-linecap="round" />
</g>
</g>
</g>
<g transform="matrix(5.360896667234665 1.5377618944860096 -1.5377618944860094 5.360896667234664 754.8983368277059 1824.6197367845168)" id="tagline-41ee3246-8f90-48e1-9667-9e2c59dff361-logo-6"  >
<g style=""  paint-order="stroke"   >
		<g transform="matrix(1 0 0 1 0 0)" id="3bac213c-a7e1-4cbe-87ef-6d016de77309-path-0"  >
<path style="stroke: none; stroke-width: 0; stroke-dasharray: none; stroke-linecap: butt; stroke-dashoffset: 0; stroke-linejoin: miter; stroke-miterlimit: 4; fill: rgb(255,255,255); fill-rule: nonzero; opacity: 1;"  paint-order="stroke"  transform=" translate(-6.215, 7.35)" d="M 1.34 0 L 11.09 0 L 11.09 -3.15 L 4.7 -3.15 L 4.7 -5.78 L 10.23 -5.78 L 10.23 -8.93 L 4.7 -8.93 L 4.7 -11.55 L 10.88 -11.55 L 10.88 -14.7 L 1.34 -14.7 Z" stroke-linecap="round" />
</g>
</g>
</g>
<g transform="matrix(5.514920665734421 0.8304063893999984 -0.8304063893999984 5.514920665734422 866.3011084633282 1848.6204472806462)" id="tagline-41ee3246-8f90-48e1-9667-9e2c59dff361-logo-7"  >
<g style=""  paint-order="stroke"   >
		<g transform="matrix(1 0 0 1 0 0)" id="aabc295d-d87f-43b8-b60a-70be7cc42938-path-0"  >
<path style="stroke: none; stroke-width: 0; stroke-dasharray: none; stroke-linecap: butt; stroke-dashoffset: 0; stroke-linejoin: miter; stroke-miterlimit: 4; fill: rgb(255,255,255); fill-rule: nonzero; opacity: 1;"  paint-order="stroke"  transform=" translate(-7.58, 7.35)" d="M 1.34 0 L 6.7 0 C 10.69 0 13.82 -3.09 13.82 -7.43 C 13.82 -11.53 10.88 -14.7 6.7 -14.7 L 1.34 -14.7 Z M 4.7 -3.15 L 4.7 -11.55 L 6.26 -11.55 C 8.55 -11.55 10.25 -9.87 10.25 -7.39 C 10.25 -4.96 8.61 -3.15 6.2 -3.15 Z" stroke-linecap="round" />
</g>
</g>
</g>
<g transform="matrix(0.9989699732610725 0.045376122826571635 -0.045376122826571635 0.9989699732610725 319.825023264697 421.5282494678144)" id="tagline-41ee3246-8f90-48e1-9667-9e2c59dff361-logo-8"  >
<g style=""  paint-order="stroke"   >
		<g transform="matrix(1 0 0 1 0 0)" id="2dc67491-d941-4045-9b5e-82fa8461437d-path-0"  >
<path style="stroke: none; stroke-width: 0; stroke-dasharray: none; stroke-linecap: butt; stroke-dashoffset: 0; stroke-linejoin: miter; stroke-miterlimit: 4; fill: rgb(255,255,255); fill-rule: nonzero; opacity: 1;"  paint-order="stroke"  transform=" translate(0, 0)" d="" stroke-linecap="round" />
</g>
</g>
</g>
<g transform="matrix(5.567900226603201 -0.32001841742775655 0.3200184174277565 5.5679002266032 1045.0567665562487 1856.7122791520756)" id="tagline-41ee3246-8f90-48e1-9667-9e2c59dff361-logo-9"  >
<g style=""  paint-order="stroke"   >
		<g transform="matrix(1 0 0 1 0 0)" id="880b5343-2587-42ad-be0d-4411ec266fca-path-0"  >
<path style="stroke: none; stroke-width: 0; stroke-dasharray: none; stroke-linecap: butt; stroke-dashoffset: 0; stroke-linejoin: miter; stroke-miterlimit: 4; fill: rgb(255,255,255); fill-rule: nonzero; opacity: 1;"  paint-order="stroke"  transform=" translate(-6.97, 7.35)" d="M 6.01 0.21 C 7.71 0.21 9.05 -0.38 10.08 -1.28 L 10.35 0 L 12.66 0 L 12.66 -6.32 L 13.69 -6.32 L 13.69 -9.07 L 8.02 -9.07 L 8.02 -6.32 L 9.16 -6.32 C 9.01 -5.15 8.17 -3.15 6.01 -3.15 C 4.33 -3.15 3.7 -3.84 3.7 -4.89 C 3.7 -5.92 4.39 -6.32 6.01 -6.32 L 6.55 -6.32 L 6.55 -9.07 L 6.01 -9.07 C 4.64 -9.07 4.07 -9.47 4.07 -10.33 C 4.07 -11.21 4.45 -11.55 5.59 -11.55 C 6.32 -11.55 6.91 -11.28 7.08 -10.71 L 10.56 -11.03 C 10.33 -13.36 8.11 -14.91 5.59 -14.91 C 2.52 -14.91 0.61 -13.13 0.61 -10.63 C 0.61 -9.47 1.07 -8.48 1.87 -7.75 C 0.82 -6.91 0.25 -5.75 0.25 -4.41 C 0.25 -1.66 2.71 0.21 6.01 0.21 Z" stroke-linecap="round" />
</g>
</g>
</g>
<g transform="matrix(0.9871927543231458 -0.15953202127435356 0.1595320212743536 0.9871927543231459 353.5637859514125 419.15528751989433)" id="tagline-41ee3246-8f90-48e1-9667-9e2c59dff361-logo-10"  >
<g style=""  paint-order="stroke"   >
		<g transform="matrix(1 0 0 1 0 0)" id="79cbe567-a2ef-4e7c-a1e7-26eb3578df8d-path-0"  >
<path style="stroke: none; stroke-width: 0; stroke-dasharray: none; stroke-linecap: butt; stroke-dashoffset: 0; stroke-linejoin: miter; stroke-miterlimit: 4; fill: rgb(255,255,255); fill-rule: nonzero; opacity: 1;"  paint-order="stroke"  transform=" translate(0, 0)" d="" stroke-linecap="round" />
</g>
</g>
</g>
<g transform="matrix(5.42329114130563 -1.3007066992742085 1.3007066992742087 5.423291141305631 1199.9608987833874 1833.9120091025084)" id="tagline-41ee3246-8f90-48e1-9667-9e2c59dff361-logo-11"  >
<g style=""  paint-order="stroke"   >
		<g transform="matrix(1 0 0 1 0 0)" id="6f54f55e-b19d-450b-b6a8-210edfe2bd75-path-0"  >
<path style="stroke: none; stroke-width: 0; stroke-dasharray: none; stroke-linecap: butt; stroke-dashoffset: 0; stroke-linejoin: miter; stroke-miterlimit: 4; fill: rgb(255,255,255); fill-rule: nonzero; opacity: 1;"  paint-order="stroke"  transform=" translate(-3.0200000000000005, 7.35)" d="M 1.34 0 L 4.7 0 L 4.7 -14.7 L 1.34 -14.7 Z" stroke-linecap="round" />
</g>
</g>
</g>
<g transform="matrix(5.245724815839889 -1.8937517993080577 1.8937517993080575 5.245724815839888 1293.2913880157757 1805.9612202649212)" id="tagline-41ee3246-8f90-48e1-9667-9e2c59dff361-logo-12"  >
<g style=""  paint-order="stroke"   >
		<g transform="matrix(1 0 0 1 0 0)" id="53f46952-77be-4d1c-ae28-b67919eea203-path-0"  >
<path style="stroke: none; stroke-width: 0; stroke-dasharray: none; stroke-linecap: butt; stroke-dashoffset: 0; stroke-linejoin: miter; stroke-miterlimit: 4; fill: rgb(255,255,255); fill-rule: nonzero; opacity: 1;"  paint-order="stroke"  transform=" translate(-7.35, 7.35)" d="M 10.37 0 L 13.36 0 L 13.36 -14.7 L 10 -14.7 L 10 -6.43 L 4.91 -14.7 L 1.34 -14.7 L 1.34 0 L 4.7 0 L 4.7 -9.24 Z" stroke-linecap="round" />
</g>
</g>
</g>
<g transform="matrix(4.957608560211608 -2.5546119244647576 2.554611924464759 4.95760856021161 1397.5565857184652 1760.48680856)" id="tagline-41ee3246-8f90-48e1-9667-9e2c59dff361-logo-13"  >
<g style=""  paint-order="stroke"   >
		<g transform="matrix(1 0 0 1 0 0)" id="2be18591-ddae-4afd-a6ea-3b1f513c17cb-path-0"  >
<path style="stroke: none; stroke-width: 0; stroke-dasharray: none; stroke-linecap: butt; stroke-dashoffset: 0; stroke-linejoin: miter; stroke-miterlimit: 4; fill: rgb(255,255,255); fill-rule: nonzero; opacity: 1;"  paint-order="stroke"  transform=" translate(-6.165, 7.35)" d="M 6.3 0.21 C 9.66 0.21 11.74 -2.21 11.74 -4.26 C 11.74 -6.7 9.53 -8.15 6.91 -8.99 C 5.15 -9.58 4.64 -9.89 4.64 -10.58 C 4.64 -11.19 5.38 -11.55 6.17 -11.55 C 7.06 -11.55 7.73 -11.09 8.38 -9.87 L 11.34 -11.63 C 10.27 -13.42 8.32 -14.91 6.17 -14.91 C 3.65 -14.91 1.28 -12.96 1.28 -10.58 C 1.28 -7.85 3.47 -6.83 5.94 -6.01 C 7.6 -5.46 8.23 -5.04 8.23 -4.26 C 8.23 -3.63 7.6 -3.15 6.3 -3.15 C 5.17 -3.15 4.22 -3.51 3.44 -5 L 0.59 -3.3 C 1.7 -1.39 3.59 0.21 6.3 0.21 Z" stroke-linecap="round" />
</g>
</g>
</g>
<g transform="matrix(4.594605490125811 -3.161253724554027 3.1612537245540273 4.5946054901258115 1493.2056106294363 1703.919187091274)" id="tagline-41ee3246-8f90-48e1-9667-9e2c59dff361-logo-14"  >
<g style=""  paint-order="stroke"   >
		<g transform="matrix(1 0 0 1 0 0)" id="6d65c362-a002-4df9-9f59-7f54f57e8bd7-path-0"  >
<path style="stroke: none; stroke-width: 0; stroke-dasharray: none; stroke-linecap: butt; stroke-dashoffset: 0; stroke-linejoin: miter; stroke-miterlimit: 4; fill: rgb(255,255,255); fill-rule: nonzero; opacity: 1;"  paint-order="stroke"  transform=" translate(-6.994999999999999, 7.244999999999999)" d="M 7.01 0.21 C 10.75 0.21 12.77 -1.95 12.77 -5.59 L 12.77 -14.7 L 9.41 -14.7 L 9.41 -5.57 C 9.41 -3.91 8.59 -3.15 6.99 -3.15 C 5.33 -3.15 4.58 -3.97 4.58 -5.57 L 4.58 -14.7 L 1.22 -14.7 L 1.22 -5.59 C 1.22 -1.79 3.36 0.21 7.01 0.21 Z" stroke-linecap="round" />
</g>
</g>
</g>
<g transform="matrix(4.1370370924945306 -3.740166950314564 3.7401669503145634 4.13703709249453 1586.0418542546583 1629.5473709655137)" id="tagline-41ee3246-8f90-48e1-9667-9e2c59dff361-logo-15"  >
<g style=""  paint-order="stroke"   >
		<g transform="matrix(1 0 0 1 0 -8.8818e-16)" id="c6208be0-5476-471d-8e23-c21ae6314cf4-path-0"  >
<path style="stroke: none; stroke-width: 0; stroke-dasharray: none; stroke-linecap: butt; stroke-dashoffset: 0; stroke-linejoin: miter; stroke-miterlimit: 4; fill: rgb(255,255,255); fill-rule: nonzero; opacity: 1;"  paint-order="stroke"  transform=" translate(-7.22, 7.35)" d="M 1.34 0 L 4.7 0 L 4.7 -4.73 L 6.64 -4.73 L 9.32 0 L 13.1 0 L 9.66 -5.73 C 11.21 -6.43 12.2 -7.69 12.2 -9.72 C 12.2 -12.58 10.21 -14.7 7.22 -14.7 L 1.34 -14.7 Z M 4.7 -7.88 L 4.7 -11.55 L 7.01 -11.55 C 8.27 -11.55 8.84 -11.03 8.84 -9.72 C 8.84 -8.44 8.32 -7.88 7.01 -7.88 Z" stroke-linecap="round" />
</g>
</g>
</g>
<g transform="matrix(3.651112118027247 -4.21583977666319 4.21583977666319 3.6511121180272466 1660.0655961024531 1553.52002947143)" id="tagline-41ee3246-8f90-48e1-9667-9e2c59dff361-logo-16"  >
<g style=""  paint-order="stroke"   >
		<g transform="matrix(1 0 0 1 0 0)" id="805bb62e-58d1-4c76-b0a6-4d60540eb53c-path-0"  >
<path style="stroke: none; stroke-width: 0; stroke-dasharray: none; stroke-linecap: butt; stroke-dashoffset: 0; stroke-linejoin: miter; stroke-miterlimit: 4; fill: rgb(255,255,255); fill-rule: nonzero; opacity: 1;"  paint-order="stroke"  transform=" translate(-6.215, 7.35)" d="M 1.34 0 L 11.09 0 L 11.09 -3.15 L 4.7 -3.15 L 4.7 -5.78 L 10.23 -5.78 L 10.23 -8.93 L 4.7 -8.93 L 4.7 -11.55 L 10.88 -11.55 L 10.88 -14.7 L 1.34 -14.7 Z" stroke-linecap="round" />
</g>
</g>
</g>
<g transform="matrix(3.0742724969155915 -4.653254058786101 4.653254058786102 3.074272496915592 1728.730516821031 1462.5693866837032)" id="tagline-41ee3246-8f90-48e1-9667-9e2c59dff361-logo-17"  >
<g style=""  paint-order="stroke"   >
		<g transform="matrix(1 0 0 1 0 0)" id="eb005129-1841-4899-a928-4da5b62ce167-path-0"  >
<path style="stroke: none; stroke-width: 0; stroke-dasharray: none; stroke-linecap: butt; stroke-dashoffset: 0; stroke-linejoin: miter; stroke-miterlimit: 4; fill: rgb(255,255,255); fill-rule: nonzero; opacity: 1;"  paint-order="stroke"  transform=" translate(-7.58, 7.35)" d="M 1.34 0 L 6.7 0 C 10.69 0 13.82 -3.09 13.82 -7.43 C 13.82 -11.53 10.88 -14.7 6.7 -14.7 L 1.34 -14.7 Z M 4.7 -3.15 L 4.7 -11.55 L 6.26 -11.55 C 8.55 -11.55 10.25 -9.87 10.25 -7.39 C 10.25 -4.96 8.61 -3.15 6.2 -3.15 Z" stroke-linecap="round" />
</g>
</g>
</g>
</svg>